<svg xmlns="http://www.w3.org/2000/svg" width="70.176" height="64.283" viewBox="0 0 52.632373 48.212327"><path d="M20.797 48.212c-1.523 0-3.03-.648-4.074-1.91L1.23 27.728c-1.874-2.25-1.574-5.602.676-7.48 2.254-1.887 5.602-1.583 7.48.675L24.877 39.5c1.882 2.26 1.573 5.603-.68 7.486-.993.828-2.2 1.226-3.4 1.226" fill="#ff3000"/><path d="M20.785 48.212c-1.058 0-2.117-.316-3.054-.968-2.386-1.688-2.96-5-1.273-7.4l26.52-37.597C44.68-.15 47.96-.713 50.38.967c2.394 1.69 2.972 5.003 1.288 7.402l-26.53 37.596c-1.044 1.465-2.685 2.246-4.353 2.246" fill="#ff3000"/></svg>