<svg xmlns="http://www.w3.org/2000/svg" width="509.087" height="588.979" viewBox="0 0 509.0874 588.9787"><path d="M314.375 588.677c.025.218.257.332.78.295-.26-.095-.522-.188-.78-.295m41.26-479.36c13.775 30.125 45.645 82.088 17.824 106.838C326.362 37.565 180.65 0 180.65 0c13.772 92.1-20.662 193.775-82.083 269.03-2.157-36.726-33.607-71.386-53.027-98.178C41.256 236.786 20 291.622 6.172 357.417c27.715-1.155 55.432-.626 83.15-8.545 55.37-15.43 109.034-36.835 165.808-38.51 5.875-2.45 11.884-4.586 18.037-6.39 12.86-3.767 26.215-5.653 40.078-5.653 3.766 0 6.787.304 9.06.91 2.27.61 3.992 1.39 5.155 2.33 1.166.943 1.912 1.91 2.246 2.91.332.996.498 1.886.498 2.66 0 .555-.028 1.055-.083 1.495-.056.448-.082.778-.082 1v.83c2.995 1.776 6.04 2.858 9.145 3.245 3.103.39 6.153.722 9.147.996 2.995.28 5.82.86 8.48 1.748 2.663.888 4.99 2.635 6.984 5.238 1.997 2.607 3.577 6.403 4.74 11.393 1.165 4.986 1.747 11.75 1.747 20.284 0 2.366-.084 4.84-.245 7.42 27.86 14.33 46.928 43.343 46.928 76.824 0 26.18-13.464 60.097-38.798 91.907 1.524-.872 3.03-1.75 4.503-2.625 3.825-2.272 7.4-4.35 10.727-6.235 3.325-1.884 6.094-3.434 8.313-4.655l5.675 21.697c19.025-14.6 34.607-29.753 46.73-44.158C594.468 326.762 391 135.106 355.63 109.317" fill="#da3300"/><path d="M382.243 109.317c13.776 30.125 16.382 81.124-11.44 105.874C323.71 36.6 207.263 0 207.263 0c13.77 92.1-49.926 192.81-111.348 268.064-2.157-36.727-4.45-62.068-23.762-97.212-4.336 66.717-55.32 121.098-69.13 187.94-18.7 90.523 52.01 190.25 138.256 222.004 5.36 1.976 10.86 3.673 16.392 5.193-5.204-3.067-10-6.8-14.378-11.214-7.095-7.15-12.72-16.047-16.876-26.688-4.16-10.644-6.237-23.06-6.237-37.25 0-10.754 1.247-22.006 3.74-33.758 2.497-11.75 6.125-23.615 10.89-35.586 4.77-11.974 10.53-23.835 17.298-35.587 6.76-11.75 14.468-22.92 23.114-33.508 8.648-10.59 18.1-20.398 28.353-29.436 10.253-9.036 21.2-16.85 32.843-23.446 11.64-6.595 23.888-11.778 36.75-15.55 12.86-3.765 26.215-5.65 40.078-5.65 3.765 0 6.787.305 9.06.912 2.27.61 3.992 1.388 5.155 2.328 1.166.944 1.913 1.912 2.247 2.91.332.997.498 1.887.498 2.66 0 .556-.028 1.056-.083 1.496-.057.448-.083.778-.083 1v.83c2.994 1.776 6.04 2.858 9.144 3.245 3.103.39 6.153.72 9.147.995 2.996.28 5.82.86 8.48 1.748 2.664.888 4.99 2.635 6.985 5.238 1.997 2.608 3.576 6.404 4.74 11.394 1.165 4.986 1.747 11.75 1.747 20.284 0 6.65-.64 14.136-1.913 22.45-1.278 8.315-2.97 17.02-5.073 26.11-2.107 9.09-4.465 18.29-7.068 27.602-2.605 9.313-5.213 18.35-7.818 27.108-2.605 8.756-5.127 17.017-7.563 24.776-2.44 7.76-4.493 14.524-6.155 20.288-.333 4.88-.61 9.423-.83 13.636-.226 4.215-.334 8.59-.334 13.136 0 3.548.084 6.46.25 8.73.166 2.274.47 4.075.915 5.404.44 1.33 1.054 2.246 1.83 2.744.775.5 1.77.748 2.992.748 2.217 0 5.015-.582 8.4-1.745 3.38-1.162 6.983-2.66 10.807-4.49 3.825-1.828 7.816-3.88 11.973-6.152 4.157-2.273 8.15-4.545 11.973-6.82 3.825-2.27 7.4-4.35 10.727-6.234 3.325-1.885 6.094-3.435 8.313-4.656l6.085 23.27c223.59-176.24 12.85-401.945-25.555-429.948" fill="#f30"/></svg>