<svg xmlns="http://www.w3.org/2000/svg" width="92.5" height="92.5" viewBox="0 0 92.5 92.5"><linearGradient id="a" gradientUnits="userSpaceOnUse" x1="46.251" y1="92.5" x2="46.251"><stop offset="0" stop-color="#A1A1A1"/><stop offset=".7" stop-color="#F3F3F3"/><stop offset="1" stop-color="#FFF"/></linearGradient><circle fill="url(#a)" stroke="#FFF" cx="46.25" cy="46.25" r="46.25"/><linearGradient id="b" gradientUnits="userSpaceOnUse" x1="46.249" y1="1.998" x2="46.249" y2="90.502"><stop offset="0" stop-color="#A1A1A1"/><stop offset=".7" stop-color="#F3F3F3"/><stop offset="1" stop-color="#FFF"/></linearGradient><circle fill="url(#b)" stroke="#FFF" cx="46.25" cy="46.25" r="44.252"/><circle fill="#555753" cx="45.312" cy="28.194" r="15.278"/><path fill="#555753" d="M49.55 47.4l-3.148 5.8-3.572-5.804c-11.336-.086-19.563-.004-19.563 11.805 0 13.022 10.863 19.33 24.002 19.33 13.14 0 23.577-6.31 23.577-19.33 0-11.962-9.55-11.89-21.296-11.8z"/><linearGradient id="c" gradientUnits="userSpaceOnUse" x1="214.25" x2="214.25" y2="92.501"><stop offset="0" stop-color="#A1A1A1"/><stop offset=".7" stop-color="#F3F3F3"/><stop offset="1" stop-color="#FFF"/></linearGradient><circle fill="url(#c)" stroke="#FFF" cx="214.25" cy="46.25" r="46.25"/><linearGradient id="d" gradientUnits="userSpaceOnUse" x1="214.25" y1="1.998" x2="214.25" y2="90.502"><stop offset="0" stop-color="#A1A1A1"/><stop offset=".7" stop-color="#F3F3F3"/><stop offset="1" stop-color="#FFF"/></linearGradient><circle fill="url(#d)" stroke="#FFF" cx="214.25" cy="46.25" r="44.252"/><g fill="#555753"><path d="M213.7 13.305c9.87 0 17.868 8 17.868 17.87 0 9.865-8 17.868-17.868 17.868-9.868 0-17.867-8.003-17.867-17.87 0-9.868 8-17.868 17.867-17.868z"/><path d="M193.938 52.135l-5.902 12.83c-1.05 2.92.34 6.436 3.098 7.855l18.795 7.497c2.755 1.42 7.284 1.538 10.113.268l19.242-8.03c2.83-1.273 3.957-4.533 2.52-7.28l-7.634-13.448c-1.436-2.746-4.307-3.085-6.924-1.416-3.03 1.935-7.598 3.93-13.545 3.93s-10.514-1.995-13.543-3.925c-2.618-1.67-5.174-1.198-6.22 1.72z"/></g></svg>