<svg xmlns="http://www.w3.org/2000/svg" width="64.366" height="64.371" viewBox="0 0 64.366246 64.371247"><path d="M32.175 1.25C15.123 1.25 1.25 15.126 1.25 32.183c0 17.06 13.873 30.938 30.925 30.938 17.06 0 30.94-13.877 30.94-30.937 0-17.057-13.88-30.933-30.94-30.933m0 63.12C14.435 64.37 0 49.93 0 32.184 0 14.438 14.434 0 32.175 0c17.75 0 32.19 14.438 32.19 32.183 0 17.748-14.44 32.188-32.19 32.188" fill="#ff3000"/><path d="M49.952 32.184c0-1.673-.992-3.36-3.214-3.36H35.536v-1.25c-.005-3.32-.008-6.64 0-9.955 0-3.395-3.99-3.87-5.706-2.392-.665.572-1.002 1.376-1.002 2.39-.007 3.318-.002 6.628.002 9.942l.002 1.25-1.252.014h-9.957c-2.217 0-3.21 1.687-3.21 3.357 0 1.67.99 3.358 3.207 3.36 2.487-.007 4.982-.007 7.477-.007h3.726l.003 11.213c0 1.018.337 1.824 1.004 2.398 1.717 1.48 5.703 1.007 5.703-2.398V35.534l11.112.002c2.315 0 3.307-1.683 3.307-3.352" fill="#ff3000"/></svg>