<svg xmlns="http://www.w3.org/2000/svg" width="34.292" height="31.277" viewBox="0 0 34.291748 31.277499"><path d="M4.21 18.19v6.456c0 3.594 3.175 6.63 6.93 6.63h2.59c.988 0 1.785-.802 1.785-1.786v-11.3h4.175l.085 11.314c.015.982.808 1.773 1.786 1.773h2.148c3.682 0 6.674-2.976 6.674-6.63v-6.458h2.125c.725 0 1.37-.438 1.653-1.103.27-.67.117-1.432-.392-1.943l-14.093-14.1C18.998.37 18.1 0 17.148 0c-.952 0-1.846.37-2.525 1.045L8.957 6.71c-.09-1.23-1.106-2.2-2.356-2.2h-.017c-1.305 0-2.372 1.06-2.372 2.367v4.18c0 .132.023.247.04.362L.522 15.143c-.51.51-.664 1.273-.384 1.943.277.665.925 1.102 1.652 1.102h2.42z" fill="#fff"/></svg>
