<svg xmlns="http://www.w3.org/2000/svg" width="41.783" height="28.987" viewBox="0 0 41.782749 28.987498"><defs><clipPath id="a"><path d="M0 841.89h595.28V0H0v841.89z"/></clipPath></defs><g clip-path="url(#a)" transform="matrix(1.25 0 0 -1.25 -329.79 896.45)"><path d="M268.305 705.63h-4.016c-.16 0-.312-.03-.457-.076v-9.252c0-1.29 1.044-2.332 2.332-2.332h3.696v10.105c0 .856-.696 1.555-1.555 1.555" fill="#ff3000"/><path d="M280.546 697.6c-3.612 0-6.54 2.927-6.54 6.54 0 3.61 2.928 6.54 6.54 6.54 3.61 0 6.54-2.93 6.54-6.54 0-3.613-2.93-6.54-6.54-6.54m14.38 16.71h-9.07v.518c0 1.29-1.042 2.332-2.33 2.332h-5.96c-1.29 0-2.332-1.043-2.332-2.332v-.518h-9.07c-1.287 0-2.33-1.045-2.33-2.332v-4.84c.15.024.3.047.455.047h4.015c1.716 0 3.11-1.395 3.11-3.11v-7.708s-.16-2.397 2.04-2.397h21.472c1.287 0 2.332 1.043 2.332 2.332v15.676c0 1.287-1.046 2.332-2.333 2.332" fill="#ff3000"/></g></svg>