<?xml version="1.0" encoding="UTF-8" standalone="no"?>
<!-- Created with Inkscape (http://www.inkscape.org/) -->

<svg
   xmlns:dc="http://purl.org/dc/elements/1.1/"
   xmlns:cc="http://creativecommons.org/ns#"
   xmlns:rdf="http://www.w3.org/1999/02/22-rdf-syntax-ns#"
   xmlns:svg="http://www.w3.org/2000/svg"
   xmlns="http://www.w3.org/2000/svg"
   xmlns:sodipodi="http://sodipodi.sourceforge.net/DTD/sodipodi-0.dtd"
   xmlns:inkscape="http://www.inkscape.org/namespaces/inkscape"
   id="svg2"
   version="1.1"
   inkscape:version="0.91 r13725"
   xml:space="preserve"
   width="21.110001"
   height="18.122499"
   viewBox="0 0 21.110001 18.122499"
   sodipodi:docname="icon-coment.svg"><metadata
     id="metadata8"><rdf:RDF><cc:Work
         rdf:about=""><dc:format>image/svg+xml</dc:format><dc:type
           rdf:resource="http://purl.org/dc/dcmitype/StillImage" /><dc:title></dc:title></cc:Work></rdf:RDF></metadata><defs
     id="defs6"><clipPath
       clipPathUnits="userSpaceOnUse"
       id="clipPath16"><path
         d="m 0,841.89 595.28,0 L 595.28,0 0,0 0,841.89 Z"
         id="path18"
         inkscape:connector-curvature="0" /></clipPath></defs><sodipodi:namedview
     pagecolor="#ffffff"
     bordercolor="#666666"
     borderopacity="1"
     objecttolerance="10"
     gridtolerance="10"
     guidetolerance="10"
     inkscape:pageopacity="0"
     inkscape:pageshadow="2"
     inkscape:window-width="1366"
     inkscape:window-height="744"
     id="namedview4"
     showgrid="false"
     fit-margin-top="0"
     fit-margin-left="0"
     fit-margin-right="0"
     fit-margin-bottom="0"
     inkscape:zoom="1.1"
     inkscape:cx="21.109618"
     inkscape:cy="-169.78648"
     inkscape:window-x="0"
     inkscape:window-y="24"
     inkscape:window-maximized="1"
     inkscape:current-layer="g10" /><g
     id="g10"
     inkscape:groupmode="layer"
     inkscape:label="icono_coment"
     transform="matrix(1.25,0,0,-1.25,-350.94038,915.35762)"><g
       id="g12"><g
         id="g14"
         clip-path="url(#clipPath16)"><g
           id="g20"
           transform="translate(284.1763,727.9951)"><path
             d="m 0,0 c 0.75,0 1.356,-0.605 1.356,-1.355 0,-0.749 -0.606,-1.36 -1.356,-1.36 -0.75,0 -1.354,0.611 -1.354,1.36 C -1.354,-0.605 -0.75,0 0,0 m 5.023,0 c 0.751,0 1.356,-0.605 1.356,-1.355 0,-0.749 -0.611,-1.36 -1.356,-1.36 -0.752,0 -1.359,0.611 -1.359,1.36 0,0.75 0.607,1.355 1.359,1.355 m 5.017,0 c 0.75,0 1.358,-0.605 1.358,-1.355 0,-0.749 -0.608,-1.358 -1.358,-1.358 -0.751,0 -1.354,0.609 -1.354,1.358 0,0.75 0.603,1.355 1.354,1.355 m -13.464,-7.004 12.143,0 2.982,-3.203 0,3.203 1.763,0 0,11.295 -16.888,0 0,-11.295 z"
             style="fill:#007cff;fill-opacity:1;fill-rule:nonzero;stroke:none"
             id="path22"
             inkscape:connector-curvature="0" /></g></g></g></g></svg>