<svg xmlns="http://www.w3.org/2000/svg" width="21.11" height="18.122" viewBox="0 0 21.110001 18.122499"><defs><clipPath id="a"><path d="M0 841.89h595.28V0H0v841.89z"/></clipPath></defs><g clip-path="url(#a)" transform="matrix(1.25 0 0 -1.25 -350.94 915.36)"><path d="M284.176 727.995c.75 0 1.356-.605 1.356-1.355s-.606-1.36-1.356-1.36c-.75 0-1.354.61-1.354 1.36 0 .75.604 1.355 1.354 1.355m5.023 0c.75 0 1.355-.605 1.355-1.355s-.61-1.36-1.356-1.36c-.753 0-1.36.61-1.36 1.36 0 .75.607 1.355 1.36 1.355m5.016 0c.75 0 1.358-.605 1.358-1.355s-.608-1.358-1.358-1.358c-.75 0-1.354.61-1.354 1.358 0 .75.603 1.355 1.354 1.355m-13.464-7.004h12.143l2.982-3.202v3.203h1.763v11.296h-16.888V720.99z" fill="#007cff"/></g></svg>