<?xml version="1.0" encoding="UTF-8" standalone="no"?>
<!-- Created with Inkscape (http://www.inkscape.org/) -->

<svg
   xmlns:dc="http://purl.org/dc/elements/1.1/"
   xmlns:cc="http://creativecommons.org/ns#"
   xmlns:rdf="http://www.w3.org/1999/02/22-rdf-syntax-ns#"
   xmlns:svg="http://www.w3.org/2000/svg"
   xmlns="http://www.w3.org/2000/svg"
   xmlns:sodipodi="http://sodipodi.sourceforge.net/DTD/sodipodi-0.dtd"
   xmlns:inkscape="http://www.inkscape.org/namespaces/inkscape"
   id="svg2"
   version="1.1"
   inkscape:version="0.91 r13725"
   xml:space="preserve"
   width="41.782749"
   height="28.987499"
   viewBox="0 0 41.782749 28.987498"
   sodipodi:docname="icon_foto.ai.svg"><metadata
     id="metadata8"><rdf:RDF><cc:Work
         rdf:about=""><dc:format>image/svg+xml</dc:format><dc:type
           rdf:resource="http://purl.org/dc/dcmitype/StillImage" /><dc:title></dc:title></cc:Work></rdf:RDF></metadata><defs
     id="defs6"><clipPath
       clipPathUnits="userSpaceOnUse"
       id="clipPath16"><path
         d="m 0,841.89 595.28,0 L 595.28,0 0,0 0,841.89 Z"
         id="path18"
         inkscape:connector-curvature="0" /></clipPath></defs><sodipodi:namedview
     pagecolor="#ffffff"
     bordercolor="#666666"
     borderopacity="1"
     objecttolerance="10"
     gridtolerance="10"
     guidetolerance="10"
     inkscape:pageopacity="0"
     inkscape:pageshadow="2"
     inkscape:window-width="1366"
     inkscape:window-height="744"
     id="namedview4"
     showgrid="false"
     inkscape:zoom="1.78"
     inkscape:cx="42.259113"
     inkscape:cy="-44.123549"
     inkscape:window-x="0"
     inkscape:window-y="24"
     inkscape:window-maximized="1"
     inkscape:current-layer="g10"
     inkscape:snap-page="false"
     fit-margin-top="0"
     fit-margin-left="0"
     fit-margin-right="0"
     fit-margin-bottom="0" /><g
     id="g10"
     inkscape:groupmode="layer"
     inkscape:label="icono_fotografía"
     transform="matrix(1.25,0,0,-1.25,-329.79088,896.4495)"><g
       id="g12"><g
         id="g14"
         clip-path="url(#clipPath16)"><g
           id="g20"
           transform="translate(268.3047,705.6299)"><path
             d="m 0,0 -4.016,0 c -0.16,0 -0.311,-0.031 -0.456,-0.076 l 0,-9.252 c 0,-1.289 1.044,-2.332 2.332,-2.332 l 3.696,0 0,10.105 C 1.556,-0.699 0.859,0 0,0"
             style="fill:#ff3000;fill-opacity:1;fill-rule:nonzero;stroke:none"
             id="path22"
             inkscape:connector-curvature="0" /></g><g
           id="g24"
           transform="translate(280.5459,697.5986)"><path
             d="m 0,0 c -3.612,0 -6.54,2.928 -6.54,6.541 0,3.611 2.928,6.539 6.54,6.539 3.611,0 6.539,-2.928 6.539,-6.539 C 6.539,2.928 3.611,0 0,0 m 14.381,16.711 -9.071,0 0,0.518 c 0,1.289 -1.042,2.332 -2.331,2.332 l -5.959,0 c -1.289,0 -2.332,-1.043 -2.332,-2.332 l 0,-0.518 -9.069,0 c -1.288,0 -2.332,-1.045 -2.332,-2.332 l 0,-4.84 c 0.151,0.024 0.3,0.047 0.456,0.047 l 4.016,0 c 1.716,0 3.11,-1.395 3.11,-3.109 l 0,-7.709 c 0,0 -0.159,-2.397 2.04,-2.397 l 21.472,0 c 1.287,0 2.332,1.043 2.332,2.332 l 0,15.676 c 0,1.287 -1.045,2.332 -2.332,2.332"
             style="fill:#ff3000;fill-opacity:1;fill-rule:nonzero;stroke:none"
             id="path26"
             inkscape:connector-curvature="0" /></g></g></g></g></svg>