<svg xmlns="http://www.w3.org/2000/svg" width="28.68" height="22.532" viewBox="0 0 28.68 22.531749"><path d="M26.114 22.532c.647 0 1.206-.214 1.68-.633l-8.12-8.126c-.2.14-.386.274-.563.404-.61.45-1.103.8-1.48 1.045-.383.253-.885.51-1.51.77-.635.26-1.22.392-1.765.392h-.028c-.546 0-1.132-.132-1.765-.392-.63-.26-1.13-.517-1.507-.77-.383-.246-.874-.596-1.48-1.046-.17-.127-.36-.26-.564-.405L.884 21.9c.47.418 1.03.632 1.676.632h23.553zM1.617 8.66C1.01 8.253.47 7.79 0 7.27v12.36l7.16-7.165c-1.43-1-3.28-2.266-5.543-3.806m25.46 0c-2.176 1.476-4.028 2.742-5.555 3.81l7.157 7.16V7.27c-.46.51-.998.97-1.605 1.39" fill="#fff"/><path d="M26.114 0H2.56C1.744 0 1.106.278.665.833.223 1.386 0 2.083 0 2.915c0 .67.294 1.4.88 2.18.586.785 1.21 1.405 1.875 1.853.36.256 1.455 1.016 3.28 2.28.985.68 1.836 1.278 2.576 1.79.63.436 1.17.816 1.62 1.132.052.034.126.088.235.166.112.085.264.193.44.32.35.252.64.452.864.605.234.16.507.33.834.525.33.19.633.336.92.43.288.097.555.146.803.146h.028c.25 0 .515-.05.802-.146.29-.093.597-.24.92-.43.328-.194.602-.363.834-.522.227-.152.52-.352.86-.604.18-.127.33-.235.445-.32.107-.078.187-.132.24-.166.347-.245.89-.622 1.62-1.127 1.326-.922 3.28-2.28 5.866-4.075.78-.545 1.43-1.203 1.955-1.973.52-.766.786-1.572.786-2.414 0-.704-.253-1.304-.764-1.81-.502-.497-1.105-.75-1.8-.75" fill="#fff"/></svg>
