<svg xmlns="http://www.w3.org/2000/svg" width="675.67" height="101.017" viewBox="0 0 675.66997 101.01699"><g fill="#f30"><path d="M8.62 20.924c-1.538 2.79-2.91 4.884-4.115 6.278-1.208 1.396-2.188 2.093-2.944 2.093-1.04 0-1.56-1.193-1.56-3.582 0-2.317.334-4.398.995-6.243.662-1.844 1.59-3.48 2.784-4.912 1.193-1.43 2.612-2.648 4.256-3.653 1.643-1.005 3.44-1.833 5.39-2.483 1.953-.65 4.015-1.13 6.19-1.437 2.177-.307 4.41-.46 6.704-.46 2.67 0 5.355.194 8.05.584 2.696.39 5.286.94 7.77 1.646 2.482.71 4.8 1.567 6.952 2.57 2.15 1.007 4.025 2.118 5.622 3.336 1.597 1.218 2.85 2.536 3.76 3.955.91 1.417 1.366 2.895 1.366 4.433 0 1.82-.396 3.62-1.188 5.393-.793 1.773-2.034 3.375-3.725 4.806-1.69 1.43-3.854 2.606-6.49 3.53-2.638.92-5.8 1.42-9.488 1.49 2.34 0 4.384.37 6.136 1.115 1.748.745 3.213 1.75 4.396 3.015 1.184 1.267 2.07 2.727 2.66 4.38.59 1.657.89 3.396.89 5.216 0 1.49-.202 3.003-.605 4.54-.402 1.538-1.007 3.016-1.81 4.434-.804 1.42-1.81 2.75-3.015 3.992-1.206 1.24-2.62 2.323-4.238 3.245-1.62.922-3.446 1.65-5.48 2.182-2.034.53-4.27.795-6.704.795-1.536 0-3.157-.1-4.86-.302-1.7-.2-3.42-.473-5.16-.815-1.74-.344-3.445-.75-5.125-1.225-1.68-.474-3.264-.98-4.752-1.525-.664-.164-1.248-.412-1.756-.744-.51-.33-.763-.922-.763-1.773 0-3.924.102-7.944.303-12.06.2-4.113.608-8.134 1.223-12.06.616-3.925 1.503-7.667 2.66-11.226 1.16-3.56 2.696-6.745 4.612-9.56 1.68-1.158 3.203-1.738 4.575-1.738 1.726 0 3.168.97 4.327 2.91-1.088 1.465-2.016 3.097-2.783 4.894-.77 1.798-1.412 3.684-1.932 5.657-.52 1.973-.94 3.99-1.26 6.046-.317 2.058-.573 4.067-.762 6.03-.12 1.11-.22 2.294-.303 3.547-.082 1.254-.158 2.53-.23 3.83-.07 1.302-.122 2.596-.158 3.885-.036 1.288-.055 2.523-.055 3.705 0 .19.005.45.02.78.01.332.04.675.09 1.03.044.353.113.68.21.975.094.296.235.514.426.656 1.44.474 2.99.876 4.646 1.207 1.656.33 3.312.496 4.967.496 2.01 0 3.96-.242 5.85-.727 1.892-.485 3.57-1.254 5.037-2.306 1.466-1.053 2.643-2.4 3.53-4.044.885-1.643 1.33-3.635 1.33-5.976 0-1.37-.262-2.513-.782-3.423-.52-.91-1.2-1.67-2.038-2.286-.84-.613-1.798-1.104-2.873-1.47-1.075-.366-2.175-.697-3.298-.993l-3.298-.87c-1.078-.283-2.036-.644-2.876-1.08-.84-.44-1.52-.98-2.04-1.633-.52-.65-.78-1.495-.78-2.536 0-.496.03-.93.09-1.294.058-.367.2-.668.425-.905.224-.235.554-.413.992-.53.437-.12 1.033-.18 1.79-.18 1.017 0 1.945.043 2.784.126.838.083 1.744.124 2.714.124 2.27 0 4.32-.277 6.154-.833 1.832-.556 3.394-1.307 4.682-2.253 1.29-.945 2.282-2.05 2.98-3.316.697-1.265 1.046-2.618 1.046-4.062 0-.945-.272-1.814-.814-2.606-.545-.793-1.308-1.503-2.29-2.13-.98-.626-2.133-1.176-3.457-1.65-1.324-.472-2.767-.867-4.328-1.187-1.56-.32-3.205-.556-4.93-.71-1.727-.153-3.477-.23-5.25-.23-2.247 0-4.464.124-6.65.373-2.188.248-4.222.626-6.103 1.135-1.88.51-3.547 1.15-5 1.918-1.456.77-2.56 1.662-3.32 2.678zm69.805 39.62c-.852.78-1.91 1.614-3.175 2.5-1.266.888-2.63 1.704-4.098 2.448-1.467.745-2.96 1.366-4.486 1.862-1.525.497-2.974.745-4.345.745-1.23 0-2.262-.174-3.1-.518-.84-.342-1.52-.82-2.04-1.437-.52-.614-.893-1.365-1.117-2.252-.226-.887-.336-1.862-.336-2.927 0-1.49.17-3.222.513-5.196.345-1.973.765-4.02 1.26-6.135.496-2.116 1.022-4.227 1.58-6.332.554-2.104 1.045-4.043 1.47-5.816.164-.615.496-1.14.993-1.58.496-.437 1.057-.79 1.685-1.062.626-.27 1.276-.473 1.95-.604.674-.13 1.283-.193 1.826-.193.994 0 1.668.184 2.022.55.355.367.532.857.532 1.473 0 .52-.118 1.27-.355 2.25-.236.98-.53 2.094-.887 3.335-.354 1.242-.732 2.578-1.134 4.01-.4 1.43-.78 2.86-1.134 4.29-.355 1.432-.65 2.826-.887 4.187-.236 1.36-.355 2.583-.355 3.67 0 1.064.12 1.91.356 2.537.235.625.72.94 1.453.94.852 0 1.797-.298 2.838-.89 1.04-.59 2.094-1.306 3.158-2.146 1.063-.84 2.104-1.708 3.12-2.607 1.018-.9 1.916-1.668 2.697-2.307v7.203zM62.57 24.08c0-.543.118-1.157.354-1.844.236-.686.62-1.33 1.153-1.933.53-.604 1.24-1.11 2.128-1.525.887-.413 1.99-.62 3.316-.62.83 0 1.61.094 2.344.283.733.19 1.37.48 1.916.87.542.39.973.906 1.293 1.545.32.64.48 1.396.48 2.27 0 .805-.13 1.585-.39 2.342-.26.757-.676 1.43-1.242 2.02-.566.592-1.28 1.07-2.144 1.438-.864.367-1.898.55-3.104.55-2.08 0-3.62-.49-4.61-1.472-.993-.98-1.49-2.287-1.49-3.92z"/><path d="M87.896 68.1c-2.224 0-4.168-.4-5.836-1.206-1.666-.804-3.058-1.886-4.168-3.245-1.11-1.36-1.945-2.936-2.5-4.72-.556-1.786-.834-3.66-.834-5.62 0-1.327.13-2.73.39-4.206.262-1.478.657-2.927 1.188-4.346.533-1.42 1.2-2.77 2.006-4.06.804-1.29 1.743-2.426 2.82-3.407 1.074-.98 2.28-1.76 3.617-2.34 1.333-.58 2.82-.87 4.45-.87 1.323 0 2.553.214 3.69.64 1.133.425 2.12 1.02 2.96 1.79.84.77 1.494 1.697 1.97 2.785.47 1.088.71 2.306.71 3.653 0 1.468-.364 2.934-1.085 4.4-.72 1.466-1.72 2.85-2.997 4.15-1.278 1.3-2.798 2.458-4.56 3.475-1.76 1.017-3.672 1.81-5.73 2.377.356.638.705 1.17 1.05 1.596.34.426.69.757 1.045.993.354.237.728.403 1.117.5.39.093.81.14 1.26.14 1.418 0 2.913-.284 4.486-.85 1.57-.57 3.103-1.278 4.593-2.13 1.49-.85 2.896-1.78 4.22-2.784 1.325-1.005 2.45-1.957 3.37-2.855l4.576 4.755c-2.082 2.15-4.292 4.056-6.634 5.71-1.017.71-2.11 1.408-3.28 2.094-1.17.685-2.4 1.293-3.69 1.825-1.288.532-2.624.958-4.008 1.277-1.383.32-2.784.48-4.202.48zm-4.72-16.67c.853 0 1.78-.22 2.786-.657 1.003-.438 1.938-1 2.802-1.685.864-.686 1.59-1.43 2.182-2.235.59-.803.887-1.584.887-2.34 0-1.064-.195-1.94-.585-2.626-.39-.686-.87-1.028-1.438-1.028-1.016 0-1.885.186-2.606.564-.722.38-1.325.87-1.81 1.473-.484.602-.876 1.288-1.17 2.056-.296.77-.52 1.543-.675 2.323-.156.78-.256 1.537-.304 2.27-.048.733-.07 1.36-.07 1.88z"/><path d="M103.822 60.687c0-1.56.095-3.363.283-5.41.19-2.044.426-4.125.71-6.242.283-2.116.603-4.155.958-6.118.354-1.963.696-3.642 1.027-5.037.26-1.087.764-1.998 1.508-2.73.745-.733 1.756-1.1 3.033-1.1s2.167.39 2.664 1.17c.495.78.743 1.82.743 3.12 0 .356-.035.835-.105 1.438-.07.604-.16 1.266-.264 1.986-.11.722-.22 1.467-.34 2.235-.117.766-.23 1.475-.336 2.125-.108.65-.195 1.218-.267 1.702-.07.484-.106.81-.106.975h.707c.144-.26.367-.68.675-1.26l1.064-2.003c.402-.758.834-1.556 1.294-2.396.462-.84.894-1.644 1.295-2.412.402-.77.77-1.448 1.1-2.04.33-.59.58-1.028.746-1.31.755-1.278 1.617-2.153 2.587-2.626.97-.474 2.046-.71 3.23-.71 1.183 0 2.12.496 2.818 1.49.698.992 1.047 2.364 1.047 4.113 0 .26-.052.697-.16 1.31-.104.616-.24 1.35-.406 2.2l-.55 2.8c-.2 1.02-.385 2.06-.55 3.124-.166 1.063-.302 2.116-.408 3.156-.106 1.04-.16 2-.16 2.874 0 1.467.184 2.673.55 3.618.367.946.94 1.42 1.72 1.42.356 0 .764-.107 1.225-.32.463-.213.96-.49 1.49-.833.533-.345 1.076-.74 1.633-1.19.555-.45 1.105-.91 1.648-1.384 1.255-1.11 2.566-2.364 3.94-3.76l.603 7.945-1.773 1.35c-.97.732-1.957 1.466-2.96 2.2-1.006.73-2.053 1.39-3.142 1.967-1.086.58-2.223 1.054-3.404 1.42-1.182.367-2.424.55-3.723.55-1.3 0-2.394-.94-3.28-2.82-.886-1.88-1.33-4.63-1.33-8.246 0-1.42.094-2.95.283-4.593.188-1.644.426-3.41.71-5.303h-.567l-9.292 18.444c-.474.97-1.006 1.632-1.597 1.986-.59.354-1.275.532-2.057.532-.97 0-1.75-.208-2.34-.622-.592-.413-1.047-.97-1.366-1.667-.318-.697-.532-1.49-.638-2.376-.107-.886-.16-1.8-.16-2.747z"/><path d="M136.702 56.608c-.07-1.773-.142-3.316-.212-4.63-.07-1.31-.138-2.5-.195-3.563-.06-1.064-.102-2.046-.124-2.944-.02-.895-.034-1.82-.034-2.764 0-2.436.113-4.333.34-5.693.224-1.358.713-2.097 1.47-2.216l4.257-.674c.12-.023.23-.04.337-.053.107-.013.22-.02.34-.02.8 0 1.42.237 1.86.71.436.473.666 1.017.69 1.632l-1.383 22.452.497-.035 9.328-22.24c.07-.33.225-.65.463-.96.234-.307.543-.572.92-.8.38-.223.8-.405 1.26-.55.462-.14.952-.21 1.47-.21 1.373 0 2.472.277 3.3.833.83.556 1.243 1.27 1.243 2.146 0 .662-.09 1.29-.266 1.88-.177.59-.425 1.235-.746 1.933-.318.697-.698 1.472-1.135 2.323-.44.852-.915 1.856-1.436 3.015-.165.427-.31.865-.425 1.313-.12.402-.22.857-.304 1.366-.082.51-.123 1.033-.123 1.577 0 .567.07 1.123.213 1.667.142.544.39 1.035.745 1.472.355.438.84.787 1.455 1.047.613.26 1.407.39 2.377.39.71 0 1.53-.183 2.465-.55.935-.366 1.815-.785 2.643-1.26.97-.543 1.963-1.157 2.98-1.844v8.335c-1.56.993-3.173 1.785-4.84 2.376-1.67.593-3.26.888-4.772.888-1.276 0-2.418-.195-3.424-.586-1.004-.39-1.854-.916-2.552-1.578s-1.242-1.407-1.632-2.234c-.39-.828-.6-1.69-.62-2.59-.687 1.42-1.467 2.873-2.342 4.363-.875 1.49-1.78 2.837-2.715 4.043-.934 1.206-1.867 2.194-2.8 2.962-.935.77-1.817 1.153-2.643 1.153-1.374 0-2.437-.35-3.193-1.045-.756-.697-1.318-1.578-1.685-2.643-.368-1.063-.604-2.222-.71-3.475-.106-1.255-.195-2.45-.267-3.584l-.07-1.134z"/><path d="M180.863 68.1c-2.223 0-4.168-.4-5.835-1.206-1.667-.804-3.057-1.886-4.168-3.245-1.112-1.36-1.945-2.936-2.5-4.72-.557-1.786-.834-3.66-.834-5.62 0-1.327.13-2.73.39-4.206.26-1.478.656-2.927 1.19-4.346.53-1.42 1.198-2.77 2.004-4.06.803-1.29 1.743-2.426 2.82-3.407 1.073-.98 2.28-1.76 3.617-2.34 1.335-.58 2.82-.87 4.45-.87 1.325 0 2.555.214 3.69.64 1.135.425 2.12 1.02 2.96 1.79.84.77 1.497 1.697 1.97 2.785.473 1.088.71 2.306.71 3.653 0 1.468-.36 2.934-1.082 4.4-.722 1.466-1.72 2.85-2.997 4.15-1.278 1.3-2.797 2.458-4.56 3.475-1.76 1.017-3.67 1.81-5.728 2.377.354.638.703 1.17 1.047 1.596.342.426.69.757 1.046.993.355.237.728.403 1.118.5.39.093.81.14 1.26.14 1.42 0 2.916-.284 4.49-.85 1.57-.57 3.1-1.278 4.59-2.13 1.49-.85 2.898-1.78 4.22-2.784 1.328-1.005 2.45-1.957 3.37-2.855l4.58 4.755c-2.083 2.15-4.294 4.056-6.634 5.71-1.018.71-2.11 1.408-3.28 2.094-1.172.685-2.4 1.293-3.69 1.825s-2.626.958-4.008 1.277c-1.384.32-2.785.48-4.203.48zm-4.718-16.67c.852 0 1.78-.22 2.784-.657 1.002-.437 1.935-1 2.8-1.685.863-.686 1.59-1.43 2.182-2.235.59-.803.887-1.584.887-2.34 0-1.064-.195-1.94-.586-2.626-.39-.686-.87-1.028-1.437-1.028-1.017 0-1.886.186-2.606.564-.723.38-1.324.87-1.81 1.473-.484.602-.874 1.288-1.17 2.056-.295.77-.52 1.543-.674 2.323-.154.78-.254 1.537-.3 2.27-.05.733-.072 1.36-.072 1.88z"/><path d="M196.788 60.687c0-1.56.093-3.363.283-5.41.19-2.044.43-4.125.71-6.242.287-2.116.606-4.155.96-6.118.355-1.963.697-3.642 1.03-5.037.26-1.087.762-1.998 1.507-2.73.744-.733 1.755-1.1 3.032-1.1 1.275 0 2.163.39 2.66 1.17.496.78.744 1.82.744 3.12 0 .356-.035.835-.106 1.438-.07.604-.16 1.266-.266 1.986-.105.722-.22 1.467-.34 2.235-.115.766-.227 1.475-.332 2.125-.108.65-.196 1.218-.267 1.702-.07.484-.106.81-.106.975H207c.145-.26.368-.68.677-1.26.307-.578.66-1.246 1.063-2.003.402-.758.834-1.556 1.294-2.396.462-.84.894-1.644 1.297-2.412.404-.77.77-1.448 1.1-2.04.33-.59.58-1.028.746-1.31.758-1.278 1.62-2.153 2.59-2.626.97-.474 2.045-.71 3.23-.71 1.18 0 2.12.496 2.818 1.49.697.992 1.046 2.364 1.046 4.113 0 .26-.054.697-.16 1.31-.106.616-.243 1.35-.406 2.2-.167.85-.35 1.786-.552 2.8-.2 1.02-.384 2.06-.548 3.124-.166 1.063-.303 2.116-.41 3.156-.105 1.04-.157 2-.157 2.874 0 1.467.183 2.673.55 3.618.366.946.94 1.42 1.72 1.42.355 0 .763-.107 1.223-.32.462-.213.958-.49 1.49-.833.532-.345 1.076-.74 1.632-1.19.556-.45 1.105-.91 1.65-1.384 1.252-1.11 2.563-2.364 3.937-3.76l.6 7.945-1.772 1.35c-.97.732-1.958 1.466-2.96 2.2-1.008.73-2.055 1.39-3.14 1.967-1.09.58-2.225 1.054-3.407 1.42-1.18.367-2.422.55-3.723.55-1.3 0-2.396-.94-3.28-2.82-.888-1.88-1.33-4.63-1.33-8.246 0-1.42.093-2.95.282-4.593.186-1.644.424-3.41.71-5.303h-.57l-9.29 18.446c-.473.97-1.006 1.633-1.597 1.987-.59.354-1.275.532-2.056.532-.97 0-1.75-.21-2.342-.624-.59-.413-1.046-.97-1.365-1.667-.32-.697-.533-1.49-.64-2.376-.106-.886-.16-1.802-.16-2.748z"/><path d="M251.235 60.545c-.85.78-1.91 1.613-3.174 2.5s-2.63 1.703-4.094 2.447c-1.467.745-2.962 1.366-4.487 1.862-1.526.497-2.976.745-4.346.745-1.23 0-2.265-.174-3.104-.518-.84-.342-1.52-.82-2.04-1.437-.52-.614-.894-1.365-1.118-2.252-.225-.887-.336-1.862-.336-2.927 0-1.49.17-3.222.514-5.196.344-1.973.764-4.02 1.26-6.135.495-2.116 1.022-4.227 1.577-6.332.557-2.104 1.048-4.043 1.474-5.816.165-.615.497-1.14.99-1.58.5-.437 1.06-.79 1.688-1.062.627-.27 1.278-.473 1.95-.604.676-.13 1.284-.193 1.828-.193.993 0 1.667.184 2.02.55.357.367.534.857.534 1.473 0 .52-.118 1.27-.355 2.25-.236.98-.532 2.094-.887 3.335-.354 1.242-.733 2.578-1.135 4.01-.402 1.43-.78 2.86-1.135 4.29-.354 1.432-.65 2.826-.888 4.187-.237 1.36-.355 2.583-.355 3.67 0 1.064.118 1.91.354 2.537.233.625.72.94 1.45.94.853 0 1.797-.298 2.84-.89 1.04-.59 2.093-1.306 3.157-2.146 1.063-.84 2.104-1.708 3.12-2.607 1.018-.9 1.915-1.668 2.696-2.307v7.203zM235.38 24.08c0-.543.118-1.157.354-1.844.236-.686.62-1.33 1.153-1.933.53-.604 1.24-1.11 2.128-1.525.887-.413 1.99-.62 3.316-.62.83 0 1.61.094 2.344.283.733.19 1.37.48 1.916.87.542.39.974.906 1.293 1.545.318.64.48 1.396.48 2.27 0 .805-.133 1.585-.392 2.342-.26.757-.673 1.43-1.24 2.02-.566.592-1.282 1.07-2.145 1.438-.863.367-1.898.55-3.104.55-2.082 0-3.62-.49-4.61-1.472-.994-.98-1.49-2.287-1.49-3.92z"/><path d="M288.728 61.148c-1.68 1.3-3.335 2.46-4.967 3.476-.683.426-1.403.847-2.16 1.26-.757.414-1.503.78-2.235 1.1-.732.32-1.448.58-2.146.78-.7.2-1.343.302-1.935.302-.332 0-.82-.07-1.472-.213-.65-.143-1.36-.432-2.127-.87-.768-.436-1.538-1.068-2.306-1.896-.77-.828-1.438-1.928-2.004-3.3-.875.852-1.805 1.662-2.786 2.43-.98.77-1.998 1.438-3.05 2.005-1.053.567-2.116 1.023-3.192 1.365-1.077.344-2.158.515-3.246.515-1.537 0-2.867-.33-3.99-.993-1.124-.665-2.058-1.546-2.802-2.646-.745-1.1-1.3-2.347-1.667-3.742-.366-1.395-.55-2.838-.55-4.327 0-1.513.194-3.044.586-4.594.39-1.547.956-3.05 1.7-4.504.745-1.454 1.648-2.825 2.713-4.114 1.064-1.288 2.27-2.436 3.618-3.44 1.348-1.004 2.814-1.838 4.4-2.5 1.583-.662 3.273-1.076 5.07-1.242.07-3.025.344-6.017.816-8.973.472-2.956 1.1-5.77 1.88-8.442.78-2.672 1.696-5.143 2.75-7.413 1.052-2.27 2.205-4.232 3.457-5.888 1.252-1.656 2.59-2.95 4.01-3.885C278.51.463 279.978 0 281.49 0c1.11 0 2.057.29 2.838.87.78.577 1.412 1.346 1.896 2.304.484.957.834 2.07 1.047 3.334.214 1.264.32 2.57.32 3.918 0 .828-.035 1.68-.106 2.554-.307 3.335-.874 6.486-1.702 9.453-.83 2.968-1.797 5.858-2.906 8.673-1.112 2.814-2.318 5.604-3.618 8.37-1.3 2.768-2.566 5.64-3.796 8.62-.12.33-.238.733-.355 1.206-.12.473-.23.987-.337 1.543-.107.556-.195 1.123-.268 1.702-.07.58-.104 1.14-.104 1.684 0 .69.04 1.34.122 1.95.084.618.22 1.168.41 1.65.187.487.442.87.762 1.154.32.284.715.426 1.188.426.45 0 .938-.09 1.472-.267.532-.178 1.094-.42 1.684-.728.593-.307 1.19-.656 1.792-1.046.603-.39 1.19-.788 1.757-1.19 1.3-.945 2.66-2.02 4.08-3.228l1.065 8.192zm-24.404-19.864c-1.56.757-2.95 1.756-4.168 2.997-1.218 1.244-2.235 2.587-3.05 4.03-.814 1.44-1.438 2.895-1.862 4.36-.426 1.467-.64 2.79-.64 3.973 0 .474.054.946.16 1.42.105.473.302.898.586 1.276.283.377.686.685 1.206.92.52.237 1.194.355 2.02.355.426 0 .847-.106 1.26-.32.414-.212.81-.49 1.188-.832.378-.343.738-.733 1.082-1.17.34-.44.656-.894.94-1.366.662-1.088 1.265-2.317 1.81-3.69-.073-.33-.13-.855-.178-1.577-.05-.723-.084-1.527-.107-2.414-.02-.887-.044-1.803-.066-2.75-.024-.944-.043-1.808-.055-2.588-.015-.78-.03-1.42-.055-1.917-.024-.494-.046-.73-.07-.71zm16.67-25.715c.14-1.658.213-2.97.213-3.94 0-1.277-.112-2.164-.338-2.66-.227-.497-.55-.746-.978-.746-.757 0-1.443.48-2.06 1.437-.613.96-1.156 2.183-1.63 3.673-.473 1.49-.887 3.133-1.24 4.93-.355 1.798-.65 3.536-.888 5.215-.237 1.68-.427 3.19-.566 4.54-.145 1.347-.238 2.305-.285 2.872-.095 1.158-.172 2.276-.23 3.352-.06 1.076-.1 2.058-.124 2.944-.024.886-.036 1.66-.036 2.322v1.88c1.35-3.074 2.59-6.137 3.725-9.187.473-1.3.952-2.665 1.437-4.096.485-1.43.928-2.867 1.33-4.31.402-1.442.75-2.86 1.048-4.257.292-1.395.5-2.718.618-3.97z"/><path d="M308.52 41.533c.686 1.372 1.2 2.82 1.543 4.346.343 1.52.515 2.982.515 4.38 0 1.393-.154 2.8-.462 4.22-.308 1.42-.752 2.79-1.33 4.113-.58 1.324-1.288 2.565-2.128 3.725-.84 1.157-1.797 2.162-2.874 3.014-1.074.852-2.252 1.525-3.528 2.02-1.277.498-2.638.746-4.08.746-2.08 0-3.86-.454-5.337-1.364-1.48-.91-2.694-2.1-3.64-3.565-.945-1.465-1.637-3.12-2.074-4.965-.438-1.844-.656-3.712-.656-5.604 0-2.6.39-5.03 1.17-7.29.78-2.256 1.9-4.22 3.354-5.886 1.455-1.667 3.233-2.98 5.34-3.938 2.103-.957 4.468-1.437 7.092-1.437 2.247 0 4.352.35 6.314 1.046 1.963.697 3.803 1.632 5.517 2.802 1.714 1.17 3.31 2.512 4.79 4.025 1.475 1.514 2.853 3.074 4.13 4.682l-.673 5.002c-.64-.853-1.502-1.775-2.59-2.77-1.088-.994-2.242-1.962-3.46-2.91-1.218-.943-2.417-1.836-3.6-2.676-1.183-.84-2.197-1.542-3.05-2.11l-.284.39zM297.56 61.29c.803 0 1.584-.408 2.34-1.225.758-.815 1.42-1.845 1.987-3.086.566-1.244 1.022-2.615 1.365-4.117.343-1.5.514-2.938.514-4.31 0-1.088-.082-2.1-.248-3.033-.166-.933-.413-1.742-.744-2.43-.33-.685-.757-1.23-1.276-1.63-.52-.402-1.148-.604-1.882-.604-.97 0-1.89.414-2.766 1.24-.875.83-1.644 1.888-2.306 3.176-.663 1.29-1.182 2.714-1.562 4.274-.378 1.56-.566 3.062-.566 4.505 0 .995.095 1.93.283 2.804.186.875.482 1.638.884 2.288.402.65.934 1.17 1.596 1.56.664.394 1.457.588 2.38.588zm76.58-1.88c-.545.756-1.272 1.644-2.18 2.66-.913 1.017-1.936 1.985-3.07 2.908-1.135.922-2.354 1.702-3.655 2.34-1.3.64-2.6.96-3.9.96-1.56 0-2.86-.504-3.9-1.51-1.042-1.004-1.94-2.464-2.697-4.38-.568.662-1.265 1.337-2.093 2.022-.83.686-1.732 1.307-2.714 1.86-.98.558-2 1.013-3.064 1.367-1.065.354-2.128.532-3.192.532-1.135 0-2.24-.23-3.316-.695-1.076-.46-2.028-1.122-2.854-1.986-.83-.86-1.49-1.915-1.987-3.156-.497-1.24-.747-2.643-.747-4.203 0-1.772.25-3.594.746-5.462.496-1.87 1.182-3.696 2.056-5.48.877-1.786 1.91-3.47 3.105-5.056 1.193-1.584 2.5-2.968 3.92-4.15 1.418-1.182 2.914-2.122 4.486-2.82 1.572-.696 3.176-1.046 4.807-1.046.544 0 .97.105 1.278.318.306.213.56.455.762.728.2.27.396.538.586.798.188.26.425.45.708.567.284.12.575.195.87.23.296.035.598.053.905.053.26 0 .522-.005.8-.018.27-.012.534-.018.794-.018.356 0 .687.035.996.106.307.07.578.226.815.46.236.238.42.568.55.994.13.426.195 1.006.195 1.738 0 1.135-.12 2.395-.355 3.777-.237 1.383-.495 2.802-.78 4.256-.283 1.453-.544 2.907-.78 4.36-.236 1.456-.354 2.833-.354 4.134 0 1.11.1 1.98.304 2.606.2.628.633.94 1.294.94.496 0 1.016-.123 1.562-.37.542-.25 1.094-.574 1.647-.977.556-.403 1.112-.858 1.668-1.367.555-.508 1.082-1.034 1.578-1.578 1.16-1.278 2.33-2.72 3.51-4.33l1.702 7.878zm-30.292-2.802c0 .59.04 1.165.124 1.72.08.557.23 1.053.444 1.49.212.438.495.792.85 1.064.355.27.803.407 1.35.407.874 0 1.666-.38 2.376-1.138.708-.757 1.323-1.667 1.843-2.73.52-1.064.94-2.164 1.26-3.3.32-1.135.525-2.08.62-2.837l2.165-10.43c-.97 0-1.915.244-2.838.73-.922.483-1.79 1.14-2.607 1.968-.816.827-1.566 1.773-2.252 2.837-.687 1.065-1.276 2.183-1.773 3.354-.497 1.17-.882 2.347-1.153 3.53-.274 1.18-.41 2.293-.41 3.333zm107.298 3.547c-.497.52-1.132 1.11-1.898 1.773-.77.662-1.632 1.33-2.59 2.004-.958.674-1.99 1.33-3.104 1.97-1.11.638-2.245 1.205-3.403 1.7-1.156.498-2.32.894-3.49 1.19-1.17.295-2.3.442-3.39.442-.757 0-1.52-.13-2.29-.39-.766-.26-1.464-.74-2.09-1.437-.627-.697-1.14-1.66-1.543-2.89-.402-1.23-.604-2.827-.604-4.79 0-.827.06-1.72.177-2.678.115-.96.27-1.995.46-3.107-1.324 2.672-2.82 5.03-4.487 7.076-1.667 2.046-3.44 3.76-5.32 5.143-1.88 1.384-3.825 2.43-5.836 3.14-2.01.71-4.02 1.064-6.027 1.064-2.2 0-4.288-.385-6.262-1.153-1.975-.77-3.72-1.915-5.23-3.44-1.515-1.525-2.714-3.423-3.602-5.693-.887-2.27-1.33-4.917-1.33-7.944 0-2.293.267-4.693.8-7.2.53-2.506 1.306-5.037 2.322-7.59 1.016-2.555 2.246-5.085 3.688-7.592 1.442-2.506 3.086-4.89 4.93-7.146 1.845-2.26 3.86-4.353 6.05-6.28 2.187-1.927 4.52-3.595 7.005-5 2.485-1.408 5.098-2.514 7.84-3.318 2.744-.803 5.59-1.205 8.55-1.205.804 0 1.45.064 1.933.194.486.13.853.296 1.103.497.247.2.406.406.478.62.07.212.107.4.107.567 0 .118-.006.225-.02.318-.01.095-.016.166-.016.213v.178c.638.38 1.288.61 1.952.69.66.084 1.312.155 1.95.214.64.06 1.24.184 1.81.373.567.19 1.063.563 1.49 1.118.425.556.76 1.365 1.01 2.43.248 1.063.372 2.507.372 4.327 0 1.42-.137 3.015-.408 4.788-.273 1.773-.634 3.63-1.083 5.57-.45 1.938-.95 3.9-1.507 5.887-.556 1.987-1.112 3.914-1.667 5.782-.557 1.868-1.093 3.63-1.614 5.284-.52 1.656-.96 3.1-1.31 4.328-.077 1.04-.135 2.01-.18 2.908-.05.9-.07 1.833-.07 2.802 0 .758.016 1.378.05 1.862.034.485.1.87.196 1.153.092.282.223.48.39.584.164.106.377.16.636.16.476 0 1.072-.125 1.794-.373.72-.247 1.488-.566 2.307-.957.815-.39 1.667-.827 2.554-1.312.887-.484 1.738-.97 2.554-1.454.817-.484 1.578-.928 2.29-1.33.71-.4 1.3-.732 1.772-.993l1.806 6.92zM434.368 14.29c-.826-.234-1.686-.406-2.57-.513-.888-.106-1.746-.16-2.573-.16-1.914 0-3.806.367-5.675 1.1-1.868.733-3.683 1.732-5.444 2.997-1.762 1.266-3.44 2.756-5.038 4.47-1.595 1.715-3.085 3.56-4.47 5.533-1.382 1.975-2.63 4.025-3.74 6.154-1.11 2.13-2.07 4.254-2.874 6.37-.804 2.116-1.418 4.174-1.844 6.17-.426 2-.64 3.837-.64 5.516 0 3.335.67 5.918 2.006 7.75 1.335 1.833 3.41 2.75 6.225 2.75 1.75 0 3.41-.367 4.986-1.1 1.572-.733 3.032-1.697 4.38-2.892 1.35-1.193 2.584-2.54 3.707-4.043 1.124-1.5 2.105-3.02 2.945-4.56.84-1.534 1.53-3.02 2.074-4.45.544-1.43.934-2.665 1.17-3.705l7.38-27.383z"/><path d="M445.044 69.448c0-.118.03-.84.088-2.163.06-1.324.17-3.086.337-5.285.163-2.2.39-4.735.672-7.608.283-2.873.656-5.91 1.117-9.116.46-3.204 1.005-6.49 1.63-9.86.627-3.37 1.373-6.65 2.236-9.843.862-3.192 1.85-6.2 2.962-9.027 1.11-2.825 2.356-5.297 3.74-7.413 1.383-2.116 2.926-3.79 4.63-5.02 1.7-1.23 3.57-1.845 5.603-1.845.805 0 1.65.143 2.538.426.887.284 1.696.745 2.43 1.384.733.64 1.343 1.484 1.827 2.536s.728 2.347.728 3.884c0 1.396-.22 2.997-.657 4.806-.438 1.81-1.052 3.742-1.843 5.8-.793 2.058-1.728 4.197-2.804 6.42-1.076 2.224-2.25 4.44-3.527 6.65-1.277 2.212-2.62 4.387-4.026 6.527-1.407 2.14-2.845 4.148-4.31 6.015l-.07.567c.472-.234.827-.39 1.063-.46.237-.07.485-.106.746-.106.307 0 .556.03.744.09.188.06.36.123.514.194.153.07.313.136.48.194.165.06.366.09.603.09 2.34 0 4.41-.277 6.206-.833 1.8-.556 3.312-1.177 4.542-1.862 1.44-.78 2.695-1.69 3.76-2.73l-.78 8.618c-1.562.852-3.192 1.514-4.896 1.986-1.705.474-3.28.828-4.72 1.064-1.68.26-3.348.426-5 .496.85 1.56 1.62 3.18 2.304 4.858.59 1.443 1.13 3.057 1.614 4.842.483 1.786.726 3.59.726 5.41 0 .212-.03.66-.087 1.348-.063.686-.16 1.524-.306 2.518-.14.993-.34 2.093-.6 3.3-.26 1.205-.597 2.423-1.01 3.652-.417 1.23-.92 2.418-1.51 3.565-.593 1.146-1.283 2.164-2.075 3.05-.793.888-1.704 1.603-2.733 2.147-1.026.543-2.192.814-3.492.814-1.3 0-2.436-.295-3.405-.887-.97-.59-1.797-1.39-2.482-2.396-.687-1.004-1.26-2.176-1.722-3.51-.46-1.338-.82-2.75-1.08-4.24-.26-1.49-.443-3.01-.55-4.558-.107-1.55-.16-3.044-.16-4.486zm9.47-17.026c-.096 0-.2.266-.318.798s-.23 1.22-.337 2.058c-.11.84-.21 1.78-.305 2.82-.095 1.04-.177 2.062-.248 3.067-.073 1.006-.13 1.94-.18 2.803-.046.863-.07 1.543-.07 2.04 0 3.476.065 6.242.195 8.3.13 2.057.296 3.617.497 4.682.2 1.063.424 1.756.673 2.075.248.318.502.48.763.48.802 0 1.445-.368 1.933-1.1.483-.733.85-1.662 1.1-2.784.246-1.12.41-2.35.494-3.686.083-1.336.125-2.62.125-3.85 0-.827-.066-1.843-.196-3.05-.13-1.205-.308-2.465-.532-3.777-.225-1.312-.484-2.618-.78-3.92-.296-1.3-.604-2.464-.922-3.493-.32-1.028-.644-1.862-.976-2.5-.333-.64-.64-.96-.923-.96zm8.62-38.698c-1.372 3.405-2.448 6.402-3.23 8.992-.778 2.59-1.37 4.89-1.772 6.898-.402 2.01-.686 3.777-.85 5.303-.167 1.525-.332 2.938-.5 4.24 1.444-2.72 2.898-5.398 4.364-8.035 1.467-2.637 2.79-5.084 3.973-7.343 1.18-2.26 2.143-4.25 2.89-5.98.744-1.726 1.116-3.038 1.116-3.938 0-1.253-.178-2.17-.53-2.748-.356-.58-.84-.87-1.456-.87-1.09 0-1.914.29-2.48.87-.57.58-1.077 1.45-1.528 2.608z"/><path d="M470.69 69.448c0-.118.027-.84.088-2.163.06-1.324.17-3.086.337-5.285.166-2.2.39-4.735.674-7.608.28-2.873.653-5.91 1.114-9.116.46-3.204 1.006-6.49 1.632-9.86.626-3.37 1.372-6.65 2.235-9.843.863-3.192 1.85-6.2 2.96-9.027 1.113-2.825 2.36-5.297 3.744-7.413 1.384-2.116 2.927-3.79 4.628-5.02 1.704-1.23 3.57-1.845 5.605-1.845.803 0 1.648.143 2.535.426.887.284 1.696.745 2.43 1.384.732.64 1.342 1.484 1.827 2.536.48 1.052.726 2.347.726 3.884 0 1.396-.22 2.997-.657 4.806-.44 1.81-1.054 3.742-1.846 5.8s-1.726 4.197-2.802 6.42c-1.076 2.224-2.253 4.44-3.53 6.65-1.276 2.212-2.618 4.387-4.026 6.527-1.405 2.14-2.843 4.148-4.308 6.015l-.07.567c.47-.234.825-.39 1.06-.46.24-.07.485-.106.747-.106.307 0 .554.03.744.09.19.06.36.123.514.194.154.07.314.136.48.194.163.06.364.09.602.09 2.342 0 4.41-.277 6.208-.833 1.796-.556 3.31-1.177 4.54-1.862 1.44-.78 2.696-1.69 3.76-2.73l-.78 8.618c-1.56.852-3.192 1.514-4.896 1.986-1.703.474-3.276.828-4.718 1.064-1.68.26-3.347.426-5.003.496.85 1.56 1.62 3.18 2.307 4.858.59 1.443 1.13 3.057 1.613 4.842.484 1.786.726 3.59.726 5.41 0 .212-.03.66-.088 1.348-.06.686-.16 1.524-.302 2.518-.143.993-.342 2.093-.603 3.3-.26 1.205-.598 2.423-1.012 3.652-.413 1.23-.915 2.418-1.506 3.565-.592 1.146-1.283 2.164-2.075 3.05-.795.888-1.704 1.603-2.73 2.147-1.03.543-2.195.814-3.495.814-1.302 0-2.438-.295-3.408-.887-.968-.59-1.797-1.39-2.482-2.396-.686-1.004-1.258-2.176-1.72-3.51-.462-1.338-.82-2.75-1.08-4.24-.263-1.49-.444-3.01-.55-4.558-.108-1.55-.16-3.044-.16-4.486zm9.47-17.026c-.095 0-.2.266-.318.798-.12.532-.23 1.22-.34 2.058-.103.84-.205 1.78-.3 2.82-.095 1.04-.177 2.062-.248 3.067-.072 1.006-.13 1.94-.177 2.803-.048.863-.07 1.543-.07 2.04 0 3.476.063 6.242.194 8.3.13 2.057.3 3.617.5 4.682.2 1.063.425 1.756.674 2.075.247.318.502.48.763.48.803 0 1.447-.368 1.932-1.1.485-.733.85-1.662 1.1-2.784.25-1.12.413-2.35.496-3.686.083-1.335.124-2.62.124-3.85 0-.827-.067-1.843-.194-3.05-.132-1.205-.31-2.465-.533-3.777-.226-1.312-.485-2.618-.78-3.92-.298-1.3-.604-2.464-.922-3.493-.32-1.028-.643-1.862-.974-2.5-.334-.64-.64-.96-.924-.96zm8.62-38.698c-1.372 3.405-2.447 6.402-3.23 8.992-.78 2.59-1.37 4.89-1.772 6.898-.402 2.01-.687 3.777-.85 5.303-.167 1.525-.333 2.938-.498 4.24 1.442-2.72 2.896-5.398 4.363-8.035 1.466-2.637 2.79-5.084 3.972-7.343 1.183-2.26 2.146-4.25 2.89-5.98.747-1.726 1.118-3.038 1.118-3.938 0-1.253-.177-2.17-.53-2.748-.357-.58-.84-.87-1.457-.87-1.087 0-1.913.29-2.482.87-.567.58-1.076 1.45-1.525 2.608z"/><path d="M520.03 60.545c-.853.78-1.912 1.613-3.176 2.5-1.266.887-2.63 1.703-4.097 2.447-1.466.745-2.962 1.366-4.487 1.862-1.525.497-2.974.745-4.345.745-1.23 0-2.265-.174-3.104-.518-.84-.342-1.52-.82-2.04-1.437-.52-.614-.89-1.365-1.114-2.252-.226-.887-.337-1.862-.337-2.927 0-1.49.17-3.222.513-5.196.345-1.973.764-4.02 1.26-6.135.497-2.116 1.023-4.227 1.58-6.332.555-2.104 1.046-4.043 1.47-5.816.165-.615.497-1.14.994-1.58.497-.437 1.058-.79 1.686-1.062.626-.27 1.277-.473 1.95-.604.674-.13 1.283-.193 1.827-.193.992 0 1.666.184 2.02.55.354.367.532.857.532 1.473 0 .52-.117 1.27-.354 2.25s-.532 2.094-.888 3.335c-.354 1.242-.732 2.578-1.135 4.01-.403 1.43-.78 2.86-1.134 4.29-.354 1.432-.65 2.826-.886 4.187-.237 1.36-.355 2.583-.355 3.67 0 1.064.117 1.91.354 2.537.235.625.72.94 1.453.94.85 0 1.797-.298 2.837-.89 1.042-.59 2.094-1.306 3.158-2.146 1.064-.84 2.105-1.708 3.12-2.607 1.02-.9 1.917-1.668 2.698-2.307v7.203zM504.172 24.08c0-.543.118-1.157.354-1.844.236-.686.62-1.33 1.153-1.933.53-.604 1.24-1.11 2.126-1.525.887-.413 1.99-.62 3.316-.62.826 0 1.608.094 2.34.283.733.19 1.37.48 1.916.87.543.39.975.906 1.294 1.545.32.64.48 1.396.48 2.27 0 .805-.132 1.585-.392 2.342-.26.757-.674 1.43-1.24 2.02-.568.59-1.284 1.07-2.147 1.438-.864.367-1.898.55-3.104.55-2.08 0-3.618-.49-4.61-1.472-.994-.98-1.49-2.287-1.49-3.92z"/><path d="M517.51 60.687c0-1.56.094-3.363.283-5.41.188-2.044.426-4.125.71-6.242.282-2.116.603-4.155.957-6.118s.697-3.642 1.03-5.037c.26-1.087.762-1.998 1.507-2.73.744-.733 1.755-1.1 3.032-1.1 1.273 0 2.16.39 2.66 1.17.493.78.74 1.82.74 3.12 0 .356-.034.835-.105 1.438-.07.604-.16 1.266-.266 1.986-.105.722-.22 1.467-.337 2.235-.118.766-.23 1.475-.337 2.125-.107.65-.194 1.218-.266 1.702-.07.484-.104.81-.104.975h.71l.673-1.26 1.062-2.003c.4-.758.833-1.556 1.294-2.396.462-.84.893-1.644 1.295-2.412.404-.768.77-1.448 1.1-2.04.333-.59.58-1.028.747-1.31.757-1.278 1.62-2.153 2.59-2.626.97-.474 2.045-.71 3.227-.71s2.123.496 2.82 1.49c.697.992 1.047 2.364 1.047 4.113 0 .26-.053.697-.16 1.31-.105.616-.24 1.35-.406 2.2l-.55 2.8c-.2 1.02-.385 2.06-.55 3.124-.166 1.063-.302 2.116-.408 3.156-.106 1.04-.16 2-.16 2.874 0 1.467.183 2.673.55 3.618.367.946.94 1.42 1.72 1.42.355 0 .763-.107 1.225-.32.46-.213.96-.49 1.49-.833.53-.345 1.077-.74 1.63-1.19.56-.45 1.107-.91 1.65-1.384 1.254-1.11 2.566-2.364 3.94-3.76l.6 7.945-1.77 1.35c-.97.732-1.958 1.466-2.96 2.2-1.01.73-2.054 1.39-3.14 1.967-1.09.58-2.225 1.054-3.407 1.42-1.182.367-2.424.55-3.725.55-1.3 0-2.395-.94-3.28-2.82-.887-1.88-1.33-4.63-1.33-8.246 0-1.42.093-2.95.282-4.593.19-1.644.426-3.41.71-5.303h-.567L525.67 65.58c-.474.97-1.006 1.633-1.597 1.987-.592.354-1.277.532-2.058.532-.97 0-1.75-.21-2.34-.624-.592-.413-1.047-.97-1.366-1.667-.32-.697-.535-1.49-.64-2.376-.11-.886-.16-1.802-.16-2.748z"/><path d="M587.493 59.41c-.545.756-1.27 1.644-2.182 2.66-.91 1.017-1.93 1.985-3.065 2.908-1.135.922-2.354 1.702-3.653 2.34-1.3.64-2.6.96-3.9.96-1.562 0-2.863-.504-3.9-1.51-1.043-1.004-1.94-2.464-2.697-4.38-.567.662-1.266 1.337-2.094 2.022-.83.685-1.73 1.307-2.713 1.86-.982.558-2.004 1.013-3.067 1.367-1.066.354-2.13.532-3.193.532-1.136 0-2.24-.23-3.317-.695-1.078-.46-2.03-1.122-2.855-1.986-.828-.86-1.49-1.915-1.986-3.156-.5-1.24-.75-2.643-.75-4.203 0-1.772.25-3.594.747-5.462.496-1.87 1.182-3.696 2.056-5.48.875-1.786 1.91-3.47 3.104-5.056 1.193-1.584 2.5-2.968 3.92-4.15 1.417-1.182 2.913-2.122 4.486-2.82 1.572-.696 3.174-1.046 4.807-1.046.544 0 .97.105 1.277.318.307.213.56.455.762.728.2.27.394.538.583.798.188.26.426.45.71.567.283.12.572.195.87.23.294.035.595.053.902.053.26 0 .525-.005.798-.018.27-.012.537-.018.798-.018.355 0 .687.035.994.106.306.07.577.226.815.46.235.238.42.568.55.994.13.426.193 1.006.193 1.738 0 1.135-.12 2.395-.355 3.777-.238 1.383-.498 2.802-.78 4.256-.286 1.453-.545 2.907-.78 4.36-.237 1.456-.356 2.833-.356 4.134 0 1.11.102 1.98.302 2.606.2.628.633.94 1.295.94.496 0 1.017-.123 1.56-.37.544-.25 1.095-.574 1.65-.977.556-.403 1.11-.858 1.667-1.367.556-.508 1.082-1.034 1.578-1.578 1.16-1.278 2.33-2.72 3.512-4.33l1.7 7.878zM557.2 56.607c0 .59.04 1.165.127 1.72.08.557.23 1.053.442 1.49.21.437.493.792.85 1.064.352.27.802.41 1.35.41.87 0 1.662-.38 2.373-1.137.71-.757 1.324-1.667 1.845-2.73.52-1.064.94-2.164 1.26-3.3.316-1.135.524-2.08.617-2.837l2.164-10.43c-.97 0-1.914.244-2.837.73-.922.483-1.792 1.14-2.606 1.968-.816.827-1.568 1.773-2.254 2.837-.686 1.065-1.276 2.183-1.773 3.354-.495 1.17-.88 2.347-1.15 3.53-.276 1.18-.412 2.293-.412 3.333z"/><path d="M612.82 60.155c-2.272 1.324-4.294 2.482-6.067 3.476-1.773.997-3.352 1.824-4.734 2.486-1.388.662-2.616 1.16-3.69 1.49-1.078.33-2.05.496-2.928.496-1.797 0-3.383-.543-4.754-1.63-1.37-1.088-2.52-2.655-3.44-4.7-.923-2.046-1.615-4.52-2.076-7.43-.46-2.91-.69-6.186-.69-9.827 0-1.42.058-2.932.177-4.54.12-1.607.283-3.204.496-4.788-.71-.095-1.26-.184-1.648-.267-.39-.082-.806-.165-1.243-.248-.437-.084-.992-.172-1.667-.267-.673-.095-1.648-.213-2.926-.355-.566-.07-1.004-.206-1.312-.407-.307-.2-.53-.436-.674-.71-.142-.27-.225-.553-.247-.85-.02-.295-.035-.55-.035-.762 0-.472.23-.833.69-1.08.462-.25 1.054-.433 1.774-.55.72-.12 1.512-.184 2.375-.196.863-.01 1.69-.005 2.482.02.793.023 1.502.04 2.13.053.625.012 1.057-.006 1.294-.054.64-3.193 1.448-6.284 2.43-9.276.98-2.99 2.08-5.65 3.3-7.98 1.217-2.33 2.547-4.197 3.99-5.604 1.44-1.407 2.955-2.11 4.54-2.11 1.017 0 1.944.282 2.784.85.84.568 1.555 1.325 2.146 2.27.59.947 1.047 2.053 1.367 3.317.318 1.266.48 2.584.48 3.955 0 1.16-.167 2.383-.497 3.67-.333 1.29-.782 2.603-1.35 3.94-.567 1.335-1.235 2.69-2.003 4.06-.77 1.372-1.58 2.732-2.43 4.08.21.023.566.04 1.063.053.497.013 1.07.03 1.72.054.65.022 1.354.05 2.11.087.757.034 1.49.064 2.2.087.71.024 1.37.048 1.986.07.613.024 1.12.05 1.523.072.47.022.813.26 1.026.71.213.447.32 1.016.32 1.7 0 .827-.238 1.5-.71 2.02-.474.52-.993.78-1.562.78h-13.62c-.687.947-1.378 1.875-2.074 2.785-.697.91-1.342 1.732-1.932 2.466-.097 1.468-.18 2.91-.25 4.33-.024.614-.048 1.246-.07 1.896-.024.65-.048 1.295-.07 1.933-.024.64-.044 1.253-.054 1.844-.013.592-.018 1.135-.018 1.632 0 1.277.117 2.354.354 3.228.236.875.58 1.59 1.03 2.146.448.553.997.955 1.647 1.204.65.248 1.376.372 2.18.372.497 0 1.118-.118 1.863-.354.745-.236 1.562-.562 2.448-.976.888-.413 1.82-.904 2.802-1.472s1.95-1.188 2.908-1.862c.96-.674 1.875-1.384 2.75-2.13.875-.743 1.666-1.506 2.377-2.286v9.078zM601.466 15.25c0-.26-.018-.55-.053-.87-.035-.32-.113-.62-.23-.904-.12-.284-.3-.52-.55-.71-.25-.188-.597-.283-1.046-.283-.615 0-1.236.544-1.862 1.632-.628 1.088-1.23 2.478-1.81 4.167-.58 1.69-1.123 3.554-1.63 5.587-.51 2.03-.977 4.005-1.402 5.92.354.05.71.09 1.063.125.355.035.72.077 1.1.124.71-1.206 1.45-2.513 2.217-3.92.768-1.406 1.46-2.79 2.076-4.15.612-1.36 1.12-2.63 1.523-3.812.4-1.185.602-2.155.602-2.91z"/><path d="M629.88 40.86c.188-.805.524-1.52 1.01-2.147.485-.627 1.04-1.153 1.667-1.58.627-.424 1.283-.743 1.97-.956.685-.213 1.335-.32 1.95-.32.732 0 1.348.16 1.844.48.5.32.75.822.75 1.508 0 .213-.036.46-.108.745-.14.614-.317 1.454-.53 2.518-.213 1.064-.443 2.27-.69 3.618-.25 1.347-.505 2.772-.765 4.274-.26 1.502-.508 2.997-.744 4.487-.59 3.5-1.194 7.26-1.81 11.28.71-.403 1.48-.9 2.307-1.49.828-.592 1.75-1.384 2.768-2.377 1.016-.993 2.15-2.24 3.404-3.742 1.253-1.502 2.66-3.375 4.22-5.622l1.703 7.874c-.426.733-.975 1.484-1.65 2.253-.674.77-1.418 1.537-2.234 2.306-.814.766-1.666 1.51-2.553 2.23s-1.756 1.4-2.607 2.04c-2.01 1.514-4.175 2.98-6.49 4.398-.45 2.53-.983 4.994-1.6 7.395-.614 2.4-1.34 4.646-2.18 6.74-.84 2.092-1.798 4.014-2.874 5.764s-2.293 3.25-3.652 4.503c-1.36 1.254-2.88 2.23-4.56 2.928-1.68.698-3.534 1.046-5.567 1.046-.805 0-1.674-.082-2.607-.248-.934-.167-1.798-.497-2.59-.993-.792-.496-1.448-1.207-1.97-2.13-.52-.92-.78-2.15-.78-3.688 0-1.063.272-2.265.817-3.6.543-1.337 1.29-2.745 2.234-4.222.948-1.48 2.07-3.016 3.37-4.61 1.3-1.597 2.715-3.188 4.24-4.772 1.525-1.583 3.12-3.144 4.79-4.68 1.667-1.537 3.35-3.003 5.054-4.398l.957-3.3c-1.277 1.137-2.607 2.053-3.99 2.75-1.383.698-2.725 1.047-4.025 1.047-1.135 0-2.24-.23-3.316-.693-1.077-.46-2.028-1.12-2.856-1.985-.828-.862-1.49-1.915-1.986-3.156-.496-1.242-.744-2.644-.744-4.204 0-2.058.1-3.95.3-5.676.202-1.726.49-3.37.87-4.93.377-1.562.852-3.068 1.418-4.522.57-1.455 1.22-2.927 1.953-4.416.543-1.065 1.324-1.875 2.342-2.43 1.016-.557 2.01-.835 2.98-.835.827 0 1.536.207 2.128.62.59.415.887 1.06.887 1.934 0 .26-.03.543-.09.85-.06.31-.16.64-.302.994-.426 1.09-.846 2.37-1.26 3.85-.414 1.478-.78 2.99-1.1 4.54-.318 1.55-.572 3.068-.762 4.558-.19 1.49-.283 2.804-.283 3.94 0 .59.04 1.164.123 1.72.084.556.23 1.052.443 1.49.21.436.497.79.85 1.063.356.27.806.408 1.35.408.874 0 1.667-.378 2.376-1.135.71-.757 1.324-1.667 1.844-2.73.52-1.064.94-2.164 1.26-3.3.32-1.135.524-2.08.62-2.837l2.48-10.43zm-16.6 53.347c.992 0 1.934-.29 2.82-.87.887-.58 1.7-1.343 2.447-2.288.744-.948 1.424-2.024 2.04-3.23.614-1.207 1.157-2.443 1.63-3.707.473-1.266.875-2.502 1.207-3.707.33-1.206.59-2.283.78-3.23-.923.616-1.862 1.35-2.82 2.2-.958.852-1.892 1.767-2.802 2.75-.91.98-1.773 1.992-2.59 3.033-.816 1.04-1.53 2.04-2.146 2.996-.615.957-1.1 1.85-1.453 2.678-.355.828-.533 1.514-.533 2.06 0 .872.474 1.312 1.42 1.312zm47.742-32.67c-.047.096-.088.32-.123.675-.04.354-.12.78-.25 1.276-.13.497-.315 1.018-.55 1.56-.238.546-.588 1.048-1.05 1.51-.46.46-1.046.845-1.755 1.15-.71.31-1.596.463-2.66.463-.875 0-1.666-.11-2.377-.334-.71-.225-1.32-.573-1.827-1.047-.507-.474-.903-1.076-1.187-1.81-.285-.733-.426-1.608-.426-2.625 0-.852.122-1.685.37-2.5.25-.816.633-1.544 1.154-2.183.52-.637 1.194-1.145 2.02-1.523.83-.38 1.81-.568 2.945-.568 1.845 0 3.263.495 4.255 1.488.994.993 1.49 2.412 1.49 4.257.002.095-.01.166-.033.213zm-6.172-11.6c.236-2.433.592-4.945 1.064-7.535.473-2.59 1.016-5.18 1.63-7.768.616-2.59 1.272-5.15 1.97-7.68.698-2.53 1.39-4.953 2.076-7.27.686-2.318 1.342-4.493 1.97-6.527.624-2.033 1.175-3.866 1.647-5.498.307-1.138.75-2.054 1.33-2.75.58-.7 1.225-1.24 1.934-1.63.71-.394 1.46-.66 2.255-.8.793-.144 1.555-.215 2.287-.215.38 0 .735.048 1.065.143.332.094.615.265.852.513.235.25.42.593.55 1.03.13.438.193 1 .193 1.685 0 .474-.03.987-.087 1.543-.06.557-.16 1.19-.3 1.898-.593 2.767-1.362 5.54-2.308 8.317-.945 2.78-2.08 5.765-3.404 8.957-1.323 3.192-2.83 6.698-4.522 10.517-1.69 3.817-3.576 8.174-5.656 13.07-.048.26-.17.5-.372.726-.2.225-.443.414-.727.567-.284.154-.59.272-.92.354-.333.083-.653.124-.96.124-.45 0-.834-.093-1.152-.282-.317-.19-.48-.51-.48-.96.003-.117.026-.294.073-.53z"/></g></svg>
