<svg xmlns="http://www.w3.org/2000/svg" width="24.321" height="31.061" viewBox="0 0 24.321375 31.061249"><path d="M4.388 3.107c1.432-.852 4.24-2.068 7.233-.82 4.088 1.7 5.55 5.068 11.754.616.532-.386.947-.186.947.47V14.99c0 .654-.36 1.578-.854 2.002-1.08.937-3.056 2.325-5.175 2.26-3.167-.097-6.25-3.47-9.125-3.47-1.84 0-3.674.89-4.76 1.532-.566.33-.996.118-.996-.54V4.96c.004-.656.414-1.52.978-1.853" fill="#fff"/><path d="M1.74 0C.78 0 0 .776 0 1.74c0 .25.05.48.15.69.156.358.41 1.11.41 1.766v25.68c0 .652.53 1.185 1.18 1.185.655 0 1.192-.532 1.192-1.184V4.196c0-.656.25-1.403.403-1.765.096-.21.15-.44.15-.69C3.485.776 2.705 0 1.74 0" fill="#fff"/></svg>
