<svg xmlns="http://www.w3.org/2000/svg" width="25.706" height="21.183" viewBox="0 0 25.706249 21.1825"><defs><clipPath id="a"><path d="M135.873 467.45h6.66v-7.313h-6.66v7.312z"/></clipPath><clipPath id="b"><path d="M135.873 462.235l3.71-2.098 2.95 5.212-3.71 2.1-2.95-5.215z"/></clipPath><clipPath id="c"><path d="M132.92 462.235h6.662v-7.31h-6.66v7.31z"/></clipPath><clipPath id="d"><path d="M132.92 457.025l3.714-2.1 2.948 5.212-3.71 2.098-2.95-5.21z"/></clipPath><clipPath id="e"><path d="M127.15 461.254h7.163v-5.432h-7.162v5.432z"/></clipPath><clipPath id="f"><path d="M127.15 459.227l6.02-3.405 1.143 2.026-6.016 3.406-1.146-2.027z"/></clipPath><clipPath id="g"><path d="M124.6 466.947h6.664v-7.31H124.6v7.31z"/></clipPath><clipPath id="h"><path d="M124.6 461.735l3.714-2.098 2.95 5.208-3.717 2.102-2.948-5.212z"/></clipPath><clipPath id="i"><path d="M127.547 470.456h11.978v-4.303h-11.978v4.303z"/></clipPath></defs><g clip-path="url(#a)" opacity=".22" transform="matrix(1.25 0 0 -1.25 -154.1 588.6)"><path d="M135.873 462.235l3.71-2.1 2.95 5.213-3.71 2.1-2.95-5.213z" fill="#e73d1f"/><g clip-path="url(#b)"><path d="M138.13 466.23l1.396.82c1.208-2.057 1.317-4.684.056-6.913l-1.405.796c.964 1.705.883 3.72-.047 5.298" fill="#e73d1f" fill-rule="evenodd"/></g></g><g clip-path="url(#c)" opacity=".22" transform="matrix(1.25 0 0 -1.25 -154.1 588.6)"><path d="M132.92 457.025l3.714-2.1 2.948 5.21-3.71 2.1-2.95-5.21z" fill="#e73d1f"/><g clip-path="url(#d)"><path d="M138.177 460.933l1.405-.796c-1.258-2.227-3.57-3.487-5.958-3.51l-.013 1.618c1.832.017 3.598.982 4.567 2.688" fill="#e73d1f" fill-rule="evenodd"/></g></g><g clip-path="url(#e)" opacity=".22" transform="matrix(1.25 0 0 -1.25 -154.1 588.6)"><path d="M127.15 459.227l6.02-3.404 1.143 2.025-6.016 3.406-1.146-2.027z" fill="#e73d1f"/><g clip-path="url(#f)"><path d="M133.612 458.244l.012-1.618c-1.177-.01-2.366.275-3.464.898-1.098.62-1.958 1.495-2.557 2.507l1.4.824c.454-.777 1.112-1.447 1.952-1.923.844-.472 1.754-.695 2.657-.686" fill="#e73d1f" fill-rule="evenodd"/></g></g><g clip-path="url(#g)" opacity=".22" transform="matrix(1.25 0 0 -1.25 -154.1 588.6)"><path d="M124.6 461.735l3.715-2.1 2.95 5.21-3.718 2.102-2.948-5.212z" fill="#e73d1f"/><g clip-path="url(#h)"><path d="M129.003 460.854l-1.4-.823c-1.205 2.06-1.316 4.69-.056 6.918l1.41-.794c-.965-1.71-.883-3.723.046-5.3" fill="#e73d1f" fill-rule="evenodd"/></g></g><g><g clip-path="url(#i)" opacity=".22" transform="matrix(1.25 0 0 -1.25 -154.1 588.6)"><path d="M136.973 469.56c-1.098.62-2.29.907-3.465.896-2.39-.02-4.697-1.28-5.96-3.508l1.41-.794c.963 1.704 2.736 2.67 4.564 2.684.9.01 1.81-.21 2.652-.688.84-.474 1.503-1.146 1.956-1.92l1.396.822c-.595 1.012-1.457 1.886-2.553 2.508" fill="#e73d1f" fill-rule="evenodd"/></g></g><g><path d="M17.104 0H8.6C3.85 0 0 3.85 0 8.6V9c0 4.75 3.85 8.6 8.6 8.6h4.637l-.427 3.582c1.98 0 8.105-4.252 9.56-5.382 2.03-1.575 3.336-4.033 3.336-6.8v-.4c0-4.75-3.85-8.6-8.602-8.6" fill="#e73d1f"/></g><g><path d="M15.577 3.51c-.172-.05-.348-.084-.532-.107-.182-.022-.36-.032-.53-.032-.396 0-.787.076-1.172.227-.386.15-.76.358-1.125.62-.364.26-.71.57-1.04.923-.33.353-.636.735-.923 1.142-.285.408-.542.83-.772 1.27-.23.44-.428.88-.594 1.315-.166.438-.293.863-.38 1.275-.09.413-.133.79-.133 1.14 0 .688.138 1.22.413 1.6.277.378.705.566 1.287.566.36 0 .703-.075 1.028-.226.325-.152.627-.35.904-.597.278-.247.533-.525.765-.835.232-.31.434-.624.608-.942.174-.317.316-.623.43-.918.11-.297.19-.552.24-.767l1.524-5.653zm3.463 9.47c-.102.107-.232.23-.39.366-.16.137-.338.275-.536.414-.197.14-.41.275-.64.406-.23.132-.465.25-.704.352-.238.103-.48.184-.72.245-.242.062-.476.092-.7.092-.157 0-.315-.027-.473-.08-.16-.054-.303-.153-.432-.298-.13-.144-.236-.342-.318-.596-.084-.253-.125-.583-.125-.988 0-.17.012-.355.037-.554.023-.197.054-.41.094-.64-.274.552-.582 1.04-.927 1.462-.344.422-.71.776-1.098 1.06-.39.287-.79.503-1.206.65-.415.146-.83.22-1.245.22-.456 0-.886-.08-1.295-.24-.407-.158-.767-.394-1.08-.71-.312-.314-.56-.707-.743-1.175-.183-.47-.274-1.015-.274-1.64 0-.474.055-.97.165-1.488.11-.517.27-1.04.48-1.566.21-.527.462-1.05.76-1.567.3-.517.64-1.01 1.02-1.476.38-.466.796-.9 1.247-1.296.453-.397.934-.742 1.447-1.032.513-.29 1.052-.518 1.618-.685.567-.166 1.155-.248 1.765-.248.167 0 .3.012.4.04.1.026.175.06.227.102.05.04.085.084.1.128.013.045.02.083.02.117 0 .025 0 .046-.003.066l-.004.044v.036c.133.08.267.127.404.144.136.016.27.03.403.044.13.012.256.037.373.076.117.04.22.116.308.23.087.116.157.284.21.503.05.22.075.517.075.893 0 .293-.028.623-.084.99-.057.365-.132.75-.225 1.15-.092.4-.196.805-.31 1.215-.116.41-.23.808-.345 1.194-.115.385-.226.75-.333 1.09-.108.343-.198.64-.272.895-.013.215-.026.415-.036.6-.01.186-.016.38-.016.58 0 .155.004.284.01.384.01.1.023.18.04.237.02.06.048.1.083.122.033.02.077.032.13.032.098 0 .222-.025.37-.076.15-.05.308-.117.477-.198.17-.08.344-.17.528-.27.182-.1.358-.2.527-.3.168-.1.325-.192.472-.275.146-.084.268-.15.366-.205l.372 1.428z" fill="#fff"/></g></svg>