<svg xmlns="http://www.w3.org/2000/svg" width="35.8" height="35.8" viewBox="0 0 35.799999 35.799998"><defs><clipPath id="a"><path d="M161.822 519.07h5.748v-6.31h-5.748v6.31z"/></clipPath><clipPath id="b"><path d="M161.822 514.57l3.2-1.81 2.548 4.497-3.203 1.812-2.545-4.5z"/></clipPath><clipPath id="c"><path d="M159.274 514.57h5.75v-6.308h-5.75v6.308z"/></clipPath><clipPath id="d"><path d="M159.274 510.073l3.204-1.81 2.545 4.496-3.2 1.81-2.55-4.497z"/></clipPath><clipPath id="e"><path d="M154.294 513.723h6.182v-4.688h-6.182v4.688z"/></clipPath><clipPath id="f"><path d="M154.294 511.974l5.194-2.94.988 1.75-5.193 2.94-.99-1.75z"/></clipPath><clipPath id="g"><path d="M152.09 518.637h5.753v-6.31h-5.752v6.31z"/></clipPath><clipPath id="h"><path d="M152.09 514.14l3.208-1.813 2.545 4.495-3.207 1.815-2.545-4.498z"/></clipPath><clipPath id="i"><path d="M154.636 523.83h10.73v-9.603h-10.73v9.603z"/></clipPath><clipPath id="j"><path d="M154.636 518.637l7.79-4.41 2.94 5.193-7.788 4.41-2.942-5.193z"/></clipPath></defs><path d="M0 17.898C0 8.014 8.015 0 17.9 0c9.886 0 17.9 8.014 17.9 17.898 0 9.885-8.014 17.902-17.9 17.902C8.014 35.8 0 27.783 0 17.898" fill="#fff"/><path d="M22.823 14.997l8.833-5.2c2.894 4.914 2.947 11 .137 15.963l-8.918-5.048c1.04-1.84.952-4.014-.052-5.715" fill="#ee721d" fill-rule="evenodd"/><path d="M22.875 20.713l8.92 5.047c-2.81 4.964-8.056 8.053-13.756 8.103l-.09-10.25c1.974-.02 3.88-1.06 4.925-2.9" fill="#e73d1f" fill-rule="evenodd"/><path d="M17.95 23.613l.088 10.25c-5.703.046-11-2.95-13.895-7.868l8.834-5.198c.49.838 1.2 1.56 2.107 2.073.91.512 1.893.752 2.866.743" fill="#e73d1f" fill-rule="evenodd"/><path d="M12.977 20.797l-8.833 5.2c-2.897-4.914-2.947-11-.137-15.963l8.922 5.047c-1.043 1.844-.954 4.017.047 5.717" fill="#ee721d" fill-rule="evenodd"/><path d="M17.853 12.183l-.088-10.25c5.703-.048 11 2.948 13.892 7.864l-8.833 5.2c-.49-.835-1.204-1.56-2.11-2.07-.907-.516-1.89-.752-2.86-.744" fill="#e73d1f" fill-rule="evenodd"/><path d="M23.97 3.132c-1.937-.798-4.04-1.218-6.205-1.2-5.703.052-10.948 3.137-13.758 8.1l8.92 5.05c1.04-1.84 2.953-2.883 4.925-2.9.91-.008 1.83.202 2.686.647-.025-.017 3.394-9.68 3.432-9.698" fill="#e73d1f" fill-rule="evenodd"/><g clip-path="url(#a)" opacity=".22" transform="matrix(1.25 0 0 -1.25 -181.89 662.52)"><g clip-path="url(#b)"><path d="M163.77 518.018l1.204.71c1.043-1.778 1.137-4.046.05-5.97l-1.214.688c.832 1.47.762 3.21-.04 4.572" fill="#b5b3b3" fill-rule="evenodd"/></g></g><g clip-path="url(#c)" opacity=".22" transform="matrix(1.25 0 0 -1.25 -181.89 662.52)"><g clip-path="url(#d)"><path d="M163.81 513.445l1.213-.687c-1.086-1.922-3.082-3.01-5.143-3.03l-.01 1.397c1.58.015 3.104.848 3.94 2.32" fill="#b5b3b3" fill-rule="evenodd"/></g></g><g clip-path="url(#e)" opacity=".22" transform="matrix(1.25 0 0 -1.25 -181.89 662.52)"><g clip-path="url(#f)"><path d="M159.87 511.125l.01-1.396c-1.015-.01-2.04.237-2.988.774-.948.535-1.69 1.29-2.207 2.164l1.207.71c.393-.67.96-1.25 1.686-1.66.728-.408 1.514-.6 2.293-.593" fill="#b5b3b3" fill-rule="evenodd"/></g></g><g clip-path="url(#g)" opacity=".22" transform="matrix(1.25 0 0 -1.25 -181.89 662.52)"><g clip-path="url(#h)"><path d="M155.892 513.378l-1.207-.71c-1.04 1.777-1.137 4.046-.05 5.97l1.218-.687c-.833-1.474-.762-3.212.04-4.572" fill="#b5b3b3" fill-rule="evenodd"/></g></g><g clip-path="url(#i)" opacity=".22" transform="matrix(1.25 0 0 -1.25 -181.89 662.52)"><g clip-path="url(#j)"><path d="M162.77 520.89c-.946.536-1.976.784-2.99.774-2.062-.017-4.054-1.105-5.144-3.027l1.217-.685c.832 1.47 2.36 2.304 3.94 2.317.776.008 1.563-.183 2.29-.596.723-.408 1.295-.988 1.686-1.656l1.204.71c-.514.872-1.258 1.627-2.203 2.163" fill="#b5b3b3" fill-rule="evenodd"/></g></g><g><path d="M21.57 9.98h-7.34c-4.1 0-7.423 3.324-7.423 7.42v.346c0 4.1 3.324 7.423 7.423 7.423h4l-.368 3.09c1.71 0 6.995-3.67 8.253-4.645 1.75-1.36 2.876-3.48 2.876-5.87v-.344c0-4.096-3.32-7.42-7.42-7.42" fill="#fff"/></g><g><path d="M23.93 14.817c0 .228-.186.413-.413.413h-11.23c-.233 0-.415-.185-.415-.413v-.987c0-.227.182-.413.415-.413h11.23c.227 0 .412.186.412.413v.987z" fill="#d64526"/></g><g><path d="M23.93 17.998c0 .227-.186.412-.413.412h-11.23c-.233 0-.415-.185-.415-.412v-.99c0-.227.182-.41.415-.41h11.23c.227 0 .412.183.412.41V18z" fill="#d64526"/></g><g><path d="M23.93 21.246c0 .23-.186.414-.413.414h-11.23c-.233 0-.415-.185-.415-.414v-.986c0-.23.182-.412.415-.412h11.23c.227 0 .412.183.412.412v.986z" fill="#d64526"/></g></svg>