<svg xmlns="http://www.w3.org/2000/svg" width="25.706" height="21.183" viewBox="0 0 25.706249 21.1825"><defs><clipPath id="a"><path d="M135.873 420.95h6.66v-7.313h-6.66v7.312z"/></clipPath><clipPath id="b"><path d="M135.873 415.735l3.71-2.098 2.95 5.212-3.71 2.1-2.95-5.215z"/></clipPath><clipPath id="c"><path d="M132.92 415.735h6.662v-7.31h-6.66v7.31z"/></clipPath><clipPath id="d"><path d="M132.92 410.525l3.714-2.1 2.948 5.212-3.71 2.098-2.95-5.21z"/></clipPath><clipPath id="e"><path d="M127.15 414.754h7.163v-5.432h-7.162v5.432z"/></clipPath><clipPath id="f"><path d="M127.15 412.727l6.02-3.405 1.143 2.026-6.016 3.406-1.146-2.027z"/></clipPath><clipPath id="g"><path d="M124.6 420.447h6.664v-7.31H124.6v7.31z"/></clipPath><clipPath id="h"><path d="M124.6 415.235l3.714-2.098 2.95 5.208-3.717 2.102-2.948-5.212z"/></clipPath><clipPath id="i"><path d="M127.547 423.956h11.978v-4.303h-11.978v4.303z"/></clipPath></defs><g clip-path="url(#a)" opacity=".22" transform="matrix(1.25 0 0 -1.25 -154.1 530.48)"><path d="M135.873 415.735l3.71-2.1 2.95 5.213-3.71 2.1-2.95-5.213z" fill="#e73d1f"/><g clip-path="url(#b)"><path d="M138.13 419.73l1.396.82c1.208-2.057 1.317-4.684.056-6.913l-1.405.796c.964 1.705.883 3.72-.047 5.298" fill="#e73d1f" fill-rule="evenodd"/></g></g><g clip-path="url(#c)" opacity=".22" transform="matrix(1.25 0 0 -1.25 -154.1 530.48)"><path d="M132.92 410.525l3.714-2.1 2.948 5.21-3.71 2.1-2.95-5.21z" fill="#e73d1f"/><g clip-path="url(#d)"><path d="M138.177 414.433l1.405-.796c-1.258-2.227-3.57-3.487-5.958-3.51l-.013 1.618c1.832.017 3.598.982 4.567 2.688" fill="#e73d1f" fill-rule="evenodd"/></g></g><g clip-path="url(#e)" opacity=".22" transform="matrix(1.25 0 0 -1.25 -154.1 530.48)"><path d="M127.15 412.727l6.02-3.404 1.143 2.025-6.016 3.406-1.146-2.027z" fill="#e73d1f"/><g clip-path="url(#f)"><path d="M133.612 411.744l.012-1.618c-1.177-.01-2.366.275-3.464.898-1.098.62-1.958 1.495-2.557 2.507l1.4.824c.454-.777 1.112-1.447 1.952-1.923.844-.472 1.754-.695 2.657-.686" fill="#e73d1f" fill-rule="evenodd"/></g></g><g clip-path="url(#g)" opacity=".22" transform="matrix(1.25 0 0 -1.25 -154.1 530.48)"><path d="M124.6 415.235l3.715-2.1 2.95 5.21-3.718 2.102-2.948-5.212z" fill="#e73d1f"/><g clip-path="url(#h)"><path d="M129.003 414.354l-1.4-.823c-1.205 2.06-1.316 4.69-.056 6.918l1.41-.794c-.965-1.71-.883-3.723.046-5.3" fill="#e73d1f" fill-rule="evenodd"/></g></g><g><g clip-path="url(#i)" opacity=".22" transform="matrix(1.25 0 0 -1.25 -154.1 530.48)"><path d="M136.973 423.06c-1.098.62-2.29.907-3.465.896-2.39-.02-4.697-1.28-5.96-3.508l1.41-.794c.963 1.704 2.736 2.67 4.564 2.684.9.01 1.81-.21 2.652-.688.84-.474 1.503-1.146 1.956-1.92l1.396.822c-.595 1.012-1.457 1.886-2.553 2.508" fill="#e73d1f" fill-rule="evenodd"/></g></g><g><path d="M17.104 0H8.6C3.85 0 0 3.85 0 8.6V9c0 4.75 3.85 8.6 8.6 8.6h4.637l-.427 3.582c1.98 0 8.105-4.252 9.56-5.382 2.03-1.575 3.336-4.033 3.336-6.8v-.4c0-4.75-3.85-8.6-8.602-8.6" fill="#e73d1f"/></g><g><path d="M12.933 10.343c-.073.234-.177.413-.31.535-.135.12-.283.183-.445.183-.17 0-.32-.036-.45-.11-.128-.072-.193-.192-.193-.358 0-.44.07-.82.216-1.146.145-.325.325-.615.538-.872.215-.256.45-.492.7-.706.252-.215.485-.437.7-.667.214-.228.394-.478.538-.75.144-.27.216-.587.216-.948 0-.205-.037-.38-.114-.52-.075-.14-.172-.258-.292-.348-.12-.09-.253-.156-.4-.198-.146-.042-.293-.062-.44-.062-.11 0-.23.034-.35.103-.123.067-.238.15-.345.24-.107.094-.2.19-.277.29-.078.1-.127.18-.147.24-.083.1-.176.175-.28.222-.106.046-.215.068-.328.068-.092 0-.183-.024-.275-.072-.09-.05-.168-.117-.237-.202-.07-.086-.125-.186-.17-.3-.043-.116-.065-.24-.065-.377 0-.108.038-.22.11-.338.148-.22.32-.416.52-.587.202-.17.417-.314.65-.43.23-.112.472-.2.72-.26.25-.056.497-.086.74-.086.298 0 .61.047.938.142.328.096.627.244.898.447.27.202.494.46.67.772.175.312.264.683.264 1.113 0 .518-.062.96-.184 1.325-.12.366-.28.686-.48.96-.198.274-.42.514-.663.72-.243.21-.487.41-.732.61-.243.196-.475.403-.694.618-.22.215-.4.463-.543.747m.257 2.88l-.008.145c-.005.078-.02.17-.047.27-.027.104-.07.213-.124.326-.055.115-.135.222-.238.32-.102.097-.23.178-.387.242-.157.062-.348.095-.572.095-.18 0-.345-.023-.49-.07-.147-.046-.273-.117-.378-.212-.105-.095-.187-.217-.245-.366-.06-.15-.088-.328-.088-.538 0-.176.025-.348.076-.516.052-.17.132-.32.24-.45.105-.132.245-.237.417-.316.17-.078.372-.116.607-.116.405 0 .713.102.923.307.21.205.315.498.315.88" fill="#fff"/></g><g><path d="M12.933 10.343c-.073.234-.177.413-.31.535-.135.12-.283.183-.445.183-.17 0-.32-.036-.45-.11-.128-.072-.193-.192-.193-.358 0-.44.07-.82.216-1.146.145-.325.325-.615.538-.872.215-.256.45-.492.7-.706.252-.215.485-.437.7-.667.214-.228.394-.478.538-.75.144-.27.216-.587.216-.948 0-.205-.037-.38-.114-.52-.075-.14-.172-.258-.292-.348-.12-.09-.253-.156-.4-.198-.146-.042-.293-.062-.44-.062-.11 0-.23.034-.35.103-.123.067-.238.15-.345.24-.107.094-.2.19-.277.29-.078.1-.127.18-.147.24-.083.1-.176.175-.28.222-.106.046-.215.068-.328.068-.092 0-.183-.024-.275-.072-.09-.05-.168-.117-.237-.202-.07-.086-.125-.186-.17-.3-.043-.116-.065-.24-.065-.377 0-.108.038-.22.11-.338.148-.22.32-.416.52-.587.202-.17.417-.314.65-.43.23-.112.472-.2.72-.26.25-.056.497-.086.74-.086.298 0 .61.047.938.142.328.096.627.244.898.447.27.202.494.46.67.772.175.312.264.683.264 1.113 0 .518-.062.96-.184 1.325-.12.366-.28.686-.48.96-.198.274-.42.514-.663.72-.243.21-.487.41-.732.61-.243.196-.475.403-.694.618-.22.215-.4.463-.543.747zm.257 2.88l-.008.145c-.005.078-.02.17-.047.27-.027.104-.07.213-.124.326-.055.115-.135.222-.238.32-.102.097-.23.178-.387.242-.157.062-.348.095-.572.095-.18 0-.345-.023-.49-.07-.147-.046-.273-.117-.378-.212-.105-.095-.187-.217-.245-.366-.06-.15-.088-.328-.088-.538 0-.176.025-.348.076-.516.052-.17.132-.32.24-.45.105-.132.245-.237.417-.316.17-.078.372-.116.607-.116.405 0 .713.102.923.307.21.205.315.498.315.88z" fill="none" stroke="#fff" stroke-width=".375" stroke-miterlimit="10"/></g></svg>