<svg xmlns="http://www.w3.org/2000/svg" width="85.916" height="82.411" viewBox="0 0 64.436805 61.808579"><path d="M19.93 38.12c.07-.354-.054-.718-.312-.972L7.84 25.664 24.11 23.3c.36-.05.67-.273.83-.597l7.28-14.75 7.277 14.75c.164.324.473.547.825.598L56.6 25.665 44.813 37.148c-.25.254-.375.618-.31.973l2.782 16.204-14.558-7.644c-.156-.086-.336-.133-.508-.133-.176 0-.352.047-.512.133l-14.554 7.644zm44.24-14.913c-.64-1.96-2.38-3.426-4.427-3.727l-15.62-2.27-6.99-14.15C36.204 1.17 34.324 0 32.22 0c-2.102 0-3.992 1.172-4.914 3.055L20.318 17.21l-15.63 2.27c-2.038.3-3.78 1.766-4.417 3.727-.644 2.004-.12 4.152 1.387 5.617l11.31 11.02-2.67 15.558c-.35 2.04.505 4.145 2.18 5.364 1.665 1.195 3.95 1.375 5.77.418l13.973-7.348 13.965 7.348c.793.41 1.676.625 2.554.625 1.16 0 2.273-.36 3.226-1.044 1.668-1.22 2.523-3.325 2.172-5.364l-2.664-15.558 11.305-11.02c1.502-1.465 2.03-3.613 1.39-5.617" fill="#ff3000"/></svg>