<svg xmlns="http://www.w3.org/2000/svg" width="65.681" height="65.684" viewBox="0 0 65.681248 65.683747"><path d="M39.866 19.29c-2.342 2.343-4.69 4.696-7.04 7.04-2.348-2.344-4.697-4.69-7.035-7.04-4.196-4.195-10.714 2.314-6.51 6.51 2.34 2.354 4.69 4.696 7.038 7.04-2.35 2.348-4.697 4.696-7.04 7.043-4.202 4.2 2.31 10.716 6.513 6.516 2.34-2.35 4.688-4.697 7.037-7.045 2.35 2.348 4.697 4.693 7.046 7.044 4.204 4.205 10.715-2.306 6.51-6.51-2.347-2.354-4.696-4.697-7.045-7.045l7.046-7.044c4.204-4.2-2.307-10.715-6.518-6.51M0 32.84C0 14.7 14.692 0 32.827 0 50.97 0 65.68 14.7 65.68 32.84c0 18.14-14.71 32.844-32.853 32.844C14.692 65.684 0 50.98 0 32.84" fill="#ff3000"/></svg>